G04 #@! TF.FileFunction,Copper,L2,Bot,Signal*
%FSLAX46Y46*%
G04 Gerber Fmt 4.6, Leading zero omitted, Abs format (unit mm)*
G04 Created by KiCad (PCBNEW 4.0.7) date 05/24/18 23:07:09*
%MOMM*%
%LPD*%
G01*
G04 APERTURE LIST*
%ADD10C,0.100000*%
%ADD11O,1.320800X2.641600*%
%ADD12R,1.700000X1.700000*%
%ADD13O,1.700000X1.700000*%
%ADD14C,2.000000*%
%ADD15C,1.500000*%
%ADD16C,0.900000*%
%ADD17C,1.000000*%
%ADD18C,0.500000*%
%ADD19C,0.254000*%
G04 APERTURE END LIST*
D10*
D11*
X158110000Y-89000000D03*
X160650000Y-89000000D03*
X173350000Y-89000000D03*
X175890000Y-89000000D03*
X163190000Y-89000000D03*
X165730000Y-89000000D03*
X170810000Y-89000000D03*
X168270000Y-89000000D03*
X175890000Y-81380000D03*
X173350000Y-81380000D03*
X170810000Y-81380000D03*
X168270000Y-81380000D03*
X165730000Y-81380000D03*
X163190000Y-81380000D03*
X160650000Y-81380000D03*
X158110000Y-81380000D03*
D12*
X191380000Y-94820000D03*
D13*
X188840000Y-94820000D03*
X186300000Y-94820000D03*
X183760000Y-94820000D03*
X181220000Y-94820000D03*
X178680000Y-94820000D03*
X176140000Y-94820000D03*
X173600000Y-94820000D03*
X171060000Y-94820000D03*
X168520000Y-94820000D03*
X165980000Y-94820000D03*
X163440000Y-94820000D03*
X160900000Y-94820000D03*
X158360000Y-94820000D03*
X155820000Y-94820000D03*
X153280000Y-94820000D03*
X150740000Y-94820000D03*
X148200000Y-94820000D03*
X145660000Y-94820000D03*
X143120000Y-94820000D03*
D12*
X191000000Y-126000000D03*
D13*
X191000000Y-128540000D03*
D12*
X150000000Y-135000000D03*
D13*
X152540000Y-135000000D03*
D12*
X150460000Y-77000000D03*
D13*
X153000000Y-77000000D03*
D12*
X181000000Y-135000000D03*
D13*
X183540000Y-135000000D03*
D12*
X143070000Y-117730000D03*
D13*
X145610000Y-117730000D03*
X148150000Y-117730000D03*
X150690000Y-117730000D03*
X153230000Y-117730000D03*
X155770000Y-117730000D03*
X158310000Y-117730000D03*
X160850000Y-117730000D03*
X163390000Y-117730000D03*
X165930000Y-117730000D03*
X168470000Y-117730000D03*
X171010000Y-117730000D03*
X173550000Y-117730000D03*
X176090000Y-117730000D03*
X178630000Y-117730000D03*
X181170000Y-117730000D03*
D12*
X181000000Y-77000000D03*
D13*
X183540000Y-77000000D03*
D12*
X128920000Y-77000000D03*
D13*
X131460000Y-77000000D03*
X134000000Y-77000000D03*
D12*
X139000000Y-77000000D03*
D13*
X141540000Y-77000000D03*
X144080000Y-77000000D03*
D11*
X158220000Y-130620000D03*
X160760000Y-130620000D03*
X173460000Y-130620000D03*
X176000000Y-130620000D03*
X163300000Y-130620000D03*
X165840000Y-130620000D03*
X170920000Y-130620000D03*
X168380000Y-130620000D03*
X176000000Y-123000000D03*
X173460000Y-123000000D03*
X170920000Y-123000000D03*
X168380000Y-123000000D03*
X165840000Y-123000000D03*
X163300000Y-123000000D03*
X160760000Y-123000000D03*
X158220000Y-123000000D03*
D14*
X121650000Y-97110000D03*
X121650000Y-99650000D03*
X121650000Y-102190000D03*
X121650000Y-104730000D03*
X121650000Y-107270000D03*
X121650000Y-109810000D03*
X121650000Y-112350000D03*
X121650000Y-114890000D03*
D15*
X128000000Y-130000000D03*
X192000000Y-120000000D03*
D16*
X128000000Y-126000000D03*
D15*
X188000000Y-120000000D03*
X147000000Y-122000000D03*
X150000000Y-88000000D03*
X166000000Y-127000000D03*
X192000000Y-88000000D03*
D16*
X159000000Y-135000000D03*
X162699333Y-90875470D03*
X177000006Y-84000000D03*
X171999998Y-84000000D03*
X176000000Y-85999992D03*
X173000000Y-86000000D03*
X173550000Y-91950000D03*
D17*
X193000000Y-93479998D02*
X193000000Y-97000000D01*
X192000000Y-120000000D02*
X192000000Y-98000000D01*
X192000000Y-98000000D02*
X193000000Y-97000000D01*
X170730399Y-136550001D02*
X158000000Y-136550001D01*
X128000000Y-130000000D02*
X151449999Y-130000000D01*
X151449999Y-130000000D02*
X158000000Y-136550001D01*
X176000000Y-131280400D02*
X170730399Y-136550001D01*
X176000000Y-130620000D02*
X176000000Y-131280400D01*
X175890000Y-89000000D02*
X176743516Y-89000000D01*
X176743516Y-89000000D02*
X181013515Y-93269999D01*
X181013515Y-93269999D02*
X192790001Y-93269999D01*
X192790001Y-93269999D02*
X193000000Y-93479998D01*
D18*
X149500000Y-124000000D02*
X131000000Y-124000000D01*
X155770000Y-117730000D02*
X154920001Y-118579999D01*
X154920001Y-118579999D02*
X149500000Y-124000000D01*
X131000000Y-124000000D02*
X130000000Y-124000000D01*
X130000000Y-124000000D02*
X128000000Y-126000000D01*
D17*
X127300000Y-94000000D02*
X124023998Y-97276002D01*
X134000000Y-77000000D02*
X132449999Y-75449999D01*
X132449999Y-75449999D02*
X127509999Y-75449999D01*
X127509999Y-75449999D02*
X127300000Y-75659998D01*
X127300000Y-75659998D02*
X127300000Y-94000000D01*
X183362081Y-120000000D02*
X186939340Y-120000000D01*
X186939340Y-120000000D02*
X188000000Y-120000000D01*
X182800000Y-120562081D02*
X183362081Y-120000000D01*
X154000000Y-127000000D02*
X153849999Y-127150001D01*
X153849999Y-127150001D02*
X127447999Y-127150001D01*
X127447999Y-127150001D02*
X126849999Y-126552001D01*
X126849999Y-126552001D02*
X126849999Y-125447999D01*
X126849999Y-125447999D02*
X130297998Y-122000000D01*
X130297998Y-122000000D02*
X147000000Y-122000000D01*
X182800000Y-120562081D02*
X185000000Y-122762081D01*
X181170000Y-118932081D02*
X182800000Y-120562081D01*
X162880400Y-127000000D02*
X162880400Y-126620000D01*
X162880400Y-126620000D02*
X165840000Y-123660400D01*
X165840000Y-123660400D02*
X165840000Y-123000000D01*
X155060660Y-127000000D02*
X154000000Y-127000000D01*
X162880400Y-127000000D02*
X155060660Y-127000000D01*
X165840000Y-130620000D02*
X165840000Y-129959600D01*
X165840000Y-129959600D02*
X162880400Y-127000000D01*
X169740410Y-128599190D02*
X170000000Y-128599190D01*
X170000000Y-128599190D02*
X179162891Y-128599190D01*
X185000000Y-122762081D02*
X189927920Y-127690001D01*
X168380000Y-130620000D02*
X168380000Y-129959600D01*
X168380000Y-129959600D02*
X169740410Y-128599190D01*
X179162891Y-128599190D02*
X185000000Y-122762081D01*
X152080000Y-85000000D02*
X153000000Y-85000000D01*
X153000000Y-85000000D02*
X162000000Y-85000000D01*
X152080000Y-85920000D02*
X153000000Y-85000000D01*
X165730000Y-89000000D02*
X165730000Y-88339600D01*
X165730000Y-88339600D02*
X162390400Y-85000000D01*
X162390400Y-85000000D02*
X162000000Y-85000000D01*
X165730000Y-81380000D02*
X165730000Y-82040400D01*
X165730000Y-82040400D02*
X162770400Y-85000000D01*
X162770400Y-85000000D02*
X162000000Y-85000000D01*
X144080000Y-77000000D02*
X142529999Y-75449999D01*
X142529999Y-75449999D02*
X135550001Y-75449999D01*
X135550001Y-75449999D02*
X134849999Y-76150001D01*
X134849999Y-76150001D02*
X134000000Y-77000000D01*
X124023998Y-97276002D02*
X124000000Y-97276002D01*
X123300000Y-98000000D02*
X123300000Y-97976002D01*
X123300000Y-97976002D02*
X124000000Y-97276002D01*
X121650000Y-99650000D02*
X123300000Y-98000000D01*
X150000000Y-88000000D02*
X152080000Y-85920000D01*
X165840000Y-123000000D02*
X165840000Y-122339600D01*
X144080000Y-77000000D02*
X152080000Y-85000000D01*
X165730000Y-81380000D02*
X168270000Y-81380000D01*
X168270000Y-89000000D02*
X165730000Y-89000000D01*
X181170000Y-117730000D02*
X181170000Y-118932081D01*
X189927920Y-127690001D02*
X190150001Y-127690001D01*
X190150001Y-127690001D02*
X191000000Y-128540000D01*
X165840000Y-130620000D02*
X168380000Y-130620000D01*
X168380000Y-123000000D02*
X165840000Y-123000000D01*
X168380000Y-122339600D02*
X168380000Y-123000000D01*
X179000000Y-78000000D02*
X189000000Y-88000000D01*
X158110000Y-81380000D02*
X158110000Y-80719600D01*
X158110000Y-80719600D02*
X160829600Y-78000000D01*
X160829600Y-78000000D02*
X179000000Y-78000000D01*
X189000000Y-88000000D02*
X190939340Y-88000000D01*
X190939340Y-88000000D02*
X192000000Y-88000000D01*
X176000000Y-127000000D02*
X178630000Y-124370000D01*
X178630000Y-124370000D02*
X178630000Y-117730000D01*
X166000000Y-127000000D02*
X176000000Y-127000000D01*
X158110000Y-81380000D02*
X158110000Y-81335690D01*
X128920000Y-77000000D02*
X128920000Y-78850000D01*
X130130660Y-80060660D02*
X139000000Y-80060660D01*
X128920000Y-78850000D02*
X130130660Y-80060660D01*
X173600000Y-94820000D02*
X172049999Y-93269999D01*
X172049999Y-93269999D02*
X152209339Y-93269999D01*
X152209339Y-93269999D02*
X139000000Y-80060660D01*
X139000000Y-80060660D02*
X139000000Y-79000000D01*
X139000000Y-79000000D02*
X139000000Y-77000000D01*
D18*
X159000000Y-135000000D02*
X159000000Y-131400000D01*
X159000000Y-131400000D02*
X158220000Y-130620000D01*
X160760000Y-123000000D02*
X160760000Y-122339600D01*
X160760000Y-123660400D02*
X160760000Y-123000000D01*
X160760000Y-122339600D02*
X163099600Y-120000000D01*
X163099600Y-120000000D02*
X168740000Y-120000000D01*
X168740000Y-120000000D02*
X171010000Y-117730000D01*
X162699333Y-90875470D02*
X177275470Y-90875470D01*
X177275470Y-90875470D02*
X181220000Y-94820000D01*
X171999998Y-84000000D02*
X177000006Y-84000000D01*
X176363604Y-84000000D02*
X177000006Y-84000000D01*
X175999992Y-86000000D02*
X176000000Y-85999992D01*
X173000000Y-86000000D02*
X175999992Y-86000000D01*
X173550000Y-91950000D02*
X175810000Y-91950000D01*
X175810000Y-91950000D02*
X178680000Y-94820000D01*
X173350000Y-88339600D02*
X173350000Y-89000000D01*
X121650000Y-102190000D02*
X145910000Y-102190000D01*
X145910000Y-102190000D02*
X153280000Y-94820000D01*
X121650000Y-104730000D02*
X145910000Y-104730000D01*
X145910000Y-104730000D02*
X155820000Y-94820000D01*
D19*
G36*
X193290000Y-87495216D02*
X193174831Y-87216485D01*
X192785564Y-86826539D01*
X192276702Y-86615241D01*
X191725715Y-86614760D01*
X191216485Y-86825169D01*
X191176585Y-86865000D01*
X189470132Y-86865000D01*
X181102572Y-78497440D01*
X181850000Y-78497440D01*
X182085317Y-78453162D01*
X182301441Y-78314090D01*
X182446431Y-78101890D01*
X182460086Y-78034459D01*
X182489946Y-78079147D01*
X182971715Y-78401054D01*
X183540000Y-78514093D01*
X184108285Y-78401054D01*
X184590054Y-78079147D01*
X184642938Y-78000000D01*
X187290000Y-78000000D01*
X187496286Y-79037072D01*
X188083741Y-79916259D01*
X188962928Y-80503714D01*
X190000000Y-80710000D01*
X191037072Y-80503714D01*
X191916259Y-79916259D01*
X192503714Y-79037072D01*
X192710000Y-78000000D01*
X192503714Y-76962928D01*
X191916259Y-76083741D01*
X191037072Y-75496286D01*
X190000000Y-75290000D01*
X188962928Y-75496286D01*
X188083741Y-76083741D01*
X187496286Y-76962928D01*
X187290000Y-78000000D01*
X184642938Y-78000000D01*
X184911961Y-77597378D01*
X185025000Y-77029093D01*
X185025000Y-76970907D01*
X184911961Y-76402622D01*
X184590054Y-75920853D01*
X184108285Y-75598946D01*
X183540000Y-75485907D01*
X182971715Y-75598946D01*
X182489946Y-75920853D01*
X182462150Y-75962452D01*
X182453162Y-75914683D01*
X182314090Y-75698559D01*
X182101890Y-75553569D01*
X181850000Y-75502560D01*
X180150000Y-75502560D01*
X179914683Y-75546838D01*
X179698559Y-75685910D01*
X179553569Y-75898110D01*
X179502560Y-76150000D01*
X179502560Y-76996976D01*
X179434346Y-76951397D01*
X179000000Y-76865000D01*
X160829600Y-76865000D01*
X160395254Y-76951397D01*
X160191065Y-77087832D01*
X160027034Y-77197434D01*
X157771191Y-79453277D01*
X157614272Y-79484490D01*
X157194014Y-79765298D01*
X156913206Y-80185556D01*
X156814600Y-80681284D01*
X156814600Y-82078716D01*
X156913206Y-82574444D01*
X157194014Y-82994702D01*
X157614272Y-83275510D01*
X158110000Y-83374116D01*
X158605728Y-83275510D01*
X159025986Y-82994702D01*
X159306794Y-82574444D01*
X159380000Y-82206411D01*
X159453206Y-82574444D01*
X159734014Y-82994702D01*
X160154272Y-83275510D01*
X160650000Y-83374116D01*
X161145728Y-83275510D01*
X161565986Y-82994702D01*
X161846794Y-82574444D01*
X161920000Y-82206411D01*
X161993206Y-82574444D01*
X162274014Y-82994702D01*
X162694272Y-83275510D01*
X163190000Y-83374116D01*
X163685728Y-83275510D01*
X164105986Y-82994702D01*
X164386794Y-82574444D01*
X164454615Y-82233486D01*
X164581807Y-82653461D01*
X164903816Y-83046189D01*
X165351604Y-83285795D01*
X165402895Y-83293820D01*
X165603000Y-83169933D01*
X165603000Y-81507000D01*
X165857000Y-81507000D01*
X165857000Y-83169933D01*
X166057105Y-83293820D01*
X166108396Y-83285795D01*
X166556184Y-83046189D01*
X166878193Y-82653461D01*
X167000000Y-82251268D01*
X167121807Y-82653461D01*
X167443816Y-83046189D01*
X167891604Y-83285795D01*
X167942895Y-83293820D01*
X168143000Y-83169933D01*
X168143000Y-81507000D01*
X165857000Y-81507000D01*
X165603000Y-81507000D01*
X165583000Y-81507000D01*
X165583000Y-81253000D01*
X165603000Y-81253000D01*
X165603000Y-79590067D01*
X165857000Y-79590067D01*
X165857000Y-81253000D01*
X168143000Y-81253000D01*
X168143000Y-79590067D01*
X168397000Y-79590067D01*
X168397000Y-81253000D01*
X168417000Y-81253000D01*
X168417000Y-81507000D01*
X168397000Y-81507000D01*
X168397000Y-83169933D01*
X168597105Y-83293820D01*
X168648396Y-83285795D01*
X169096184Y-83046189D01*
X169418193Y-82653461D01*
X169545385Y-82233486D01*
X169613206Y-82574444D01*
X169894014Y-82994702D01*
X170314272Y-83275510D01*
X170810000Y-83374116D01*
X171161191Y-83304260D01*
X171080716Y-83384595D01*
X170915187Y-83783233D01*
X170914810Y-84214873D01*
X171079644Y-84613800D01*
X171384593Y-84919282D01*
X171783231Y-85084811D01*
X172214871Y-85085188D01*
X172613798Y-84920354D01*
X172649214Y-84885000D01*
X176350379Y-84885000D01*
X176384601Y-84919282D01*
X176783239Y-85084811D01*
X177214879Y-85085188D01*
X177613806Y-84920354D01*
X177919288Y-84615405D01*
X178084817Y-84216767D01*
X178085194Y-83785127D01*
X177920360Y-83386200D01*
X177615411Y-83080718D01*
X177216773Y-82915189D01*
X176859324Y-82914877D01*
X177086794Y-82574444D01*
X177185400Y-82078716D01*
X177185400Y-80681284D01*
X177086794Y-80185556D01*
X176805986Y-79765298D01*
X176385728Y-79484490D01*
X175890000Y-79385884D01*
X175394272Y-79484490D01*
X174974014Y-79765298D01*
X174693206Y-80185556D01*
X174620000Y-80553589D01*
X174546794Y-80185556D01*
X174265986Y-79765298D01*
X173845728Y-79484490D01*
X173350000Y-79385884D01*
X172854272Y-79484490D01*
X172434014Y-79765298D01*
X172153206Y-80185556D01*
X172080000Y-80553589D01*
X172006794Y-80185556D01*
X171725986Y-79765298D01*
X171305728Y-79484490D01*
X170810000Y-79385884D01*
X170314272Y-79484490D01*
X169894014Y-79765298D01*
X169613206Y-80185556D01*
X169545385Y-80526514D01*
X169418193Y-80106539D01*
X169096184Y-79713811D01*
X168648396Y-79474205D01*
X168597105Y-79466180D01*
X168397000Y-79590067D01*
X168143000Y-79590067D01*
X167942895Y-79466180D01*
X167891604Y-79474205D01*
X167443816Y-79713811D01*
X167121807Y-80106539D01*
X167000000Y-80508732D01*
X166878193Y-80106539D01*
X166556184Y-79713811D01*
X166108396Y-79474205D01*
X166057105Y-79466180D01*
X165857000Y-79590067D01*
X165603000Y-79590067D01*
X165402895Y-79466180D01*
X165351604Y-79474205D01*
X164903816Y-79713811D01*
X164581807Y-80106539D01*
X164454615Y-80526514D01*
X164386794Y-80185556D01*
X164105986Y-79765298D01*
X163685728Y-79484490D01*
X163190000Y-79385884D01*
X162694272Y-79484490D01*
X162274014Y-79765298D01*
X161993206Y-80185556D01*
X161920000Y-80553589D01*
X161846794Y-80185556D01*
X161565986Y-79765298D01*
X161145728Y-79484490D01*
X160982675Y-79452057D01*
X161299732Y-79135000D01*
X178529868Y-79135000D01*
X188197434Y-88802566D01*
X188565655Y-89048604D01*
X189000000Y-89135000D01*
X191176042Y-89135000D01*
X191214436Y-89173461D01*
X191723298Y-89384759D01*
X192274285Y-89385240D01*
X192783515Y-89174831D01*
X193173461Y-88785564D01*
X193290000Y-88504907D01*
X193290000Y-92265264D01*
X193224347Y-92221396D01*
X192790001Y-92134999D01*
X181483648Y-92134999D01*
X177546082Y-88197434D01*
X177177862Y-87951397D01*
X177113247Y-87938544D01*
X177086794Y-87805556D01*
X176805986Y-87385298D01*
X176385728Y-87104490D01*
X176238848Y-87075274D01*
X176613800Y-86920346D01*
X176919282Y-86615397D01*
X177084811Y-86216759D01*
X177085188Y-85785119D01*
X176920354Y-85386192D01*
X176615405Y-85080710D01*
X176216767Y-84915181D01*
X175785127Y-84914804D01*
X175386200Y-85079638D01*
X175350776Y-85115000D01*
X173649627Y-85115000D01*
X173615405Y-85080718D01*
X173216767Y-84915189D01*
X172785127Y-84914812D01*
X172386200Y-85079646D01*
X172080718Y-85384595D01*
X171915189Y-85783233D01*
X171914812Y-86214873D01*
X172079646Y-86613800D01*
X172384595Y-86919282D01*
X172783233Y-87084811D01*
X172952462Y-87084959D01*
X172854272Y-87104490D01*
X172434014Y-87385298D01*
X172153206Y-87805556D01*
X172080000Y-88173589D01*
X172006794Y-87805556D01*
X171725986Y-87385298D01*
X171305728Y-87104490D01*
X170810000Y-87005884D01*
X170314272Y-87104490D01*
X169894014Y-87385298D01*
X169613206Y-87805556D01*
X169545385Y-88146514D01*
X169418193Y-87726539D01*
X169096184Y-87333811D01*
X168648396Y-87094205D01*
X168597105Y-87086180D01*
X168397000Y-87210067D01*
X168397000Y-88873000D01*
X168417000Y-88873000D01*
X168417000Y-89127000D01*
X168397000Y-89127000D01*
X168397000Y-89147000D01*
X168143000Y-89147000D01*
X168143000Y-89127000D01*
X165857000Y-89127000D01*
X165857000Y-89147000D01*
X165603000Y-89147000D01*
X165603000Y-89127000D01*
X165583000Y-89127000D01*
X165583000Y-88873000D01*
X165603000Y-88873000D01*
X165603000Y-87210067D01*
X165857000Y-87210067D01*
X165857000Y-88873000D01*
X168143000Y-88873000D01*
X168143000Y-87210067D01*
X167942895Y-87086180D01*
X167891604Y-87094205D01*
X167443816Y-87333811D01*
X167121807Y-87726539D01*
X167000000Y-88128732D01*
X166878193Y-87726539D01*
X166556184Y-87333811D01*
X166108396Y-87094205D01*
X166057105Y-87086180D01*
X165857000Y-87210067D01*
X165603000Y-87210067D01*
X165402895Y-87086180D01*
X165351604Y-87094205D01*
X164903816Y-87333811D01*
X164581807Y-87726539D01*
X164454615Y-88146514D01*
X164386794Y-87805556D01*
X164105986Y-87385298D01*
X163685728Y-87104490D01*
X163190000Y-87005884D01*
X162694272Y-87104490D01*
X162274014Y-87385298D01*
X161993206Y-87805556D01*
X161920000Y-88173589D01*
X161846794Y-87805556D01*
X161565986Y-87385298D01*
X161145728Y-87104490D01*
X160650000Y-87005884D01*
X160154272Y-87104490D01*
X159734014Y-87385298D01*
X159453206Y-87805556D01*
X159380000Y-88173589D01*
X159306794Y-87805556D01*
X159025986Y-87385298D01*
X158605728Y-87104490D01*
X158110000Y-87005884D01*
X157614272Y-87104490D01*
X157194014Y-87385298D01*
X156913206Y-87805556D01*
X156814600Y-88301284D01*
X156814600Y-89698716D01*
X156913206Y-90194444D01*
X157194014Y-90614702D01*
X157614272Y-90895510D01*
X158110000Y-90994116D01*
X158605728Y-90895510D01*
X159025986Y-90614702D01*
X159306794Y-90194444D01*
X159380000Y-89826411D01*
X159453206Y-90194444D01*
X159734014Y-90614702D01*
X160154272Y-90895510D01*
X160650000Y-90994116D01*
X161145728Y-90895510D01*
X161565986Y-90614702D01*
X161742464Y-90350585D01*
X161614522Y-90658703D01*
X161614145Y-91090343D01*
X161778979Y-91489270D01*
X162083928Y-91794752D01*
X162482566Y-91960281D01*
X162914206Y-91960658D01*
X163313133Y-91795824D01*
X163348549Y-91760470D01*
X172465165Y-91760470D01*
X172464812Y-92164873D01*
X172489625Y-92224924D01*
X172484345Y-92221396D01*
X172049999Y-92134999D01*
X152679471Y-92134999D01*
X140135000Y-79590528D01*
X140135000Y-78421192D01*
X140301441Y-78314090D01*
X140446431Y-78101890D01*
X140460086Y-78034459D01*
X140489946Y-78079147D01*
X140971715Y-78401054D01*
X141540000Y-78514093D01*
X142108285Y-78401054D01*
X142590054Y-78079147D01*
X142817702Y-77738447D01*
X142884817Y-77881358D01*
X143313076Y-78271645D01*
X143723110Y-78441476D01*
X143953000Y-78320155D01*
X143953000Y-77127000D01*
X144207000Y-77127000D01*
X144207000Y-78320155D01*
X144436890Y-78441476D01*
X144846924Y-78271645D01*
X145275183Y-77881358D01*
X145521486Y-77356892D01*
X145400819Y-77127000D01*
X144207000Y-77127000D01*
X143953000Y-77127000D01*
X143933000Y-77127000D01*
X143933000Y-76873000D01*
X143953000Y-76873000D01*
X143953000Y-75679845D01*
X144207000Y-75679845D01*
X144207000Y-76873000D01*
X145400819Y-76873000D01*
X145521486Y-76643108D01*
X145289910Y-76150000D01*
X148962560Y-76150000D01*
X148962560Y-77850000D01*
X149006838Y-78085317D01*
X149145910Y-78301441D01*
X149358110Y-78446431D01*
X149610000Y-78497440D01*
X151310000Y-78497440D01*
X151545317Y-78453162D01*
X151761441Y-78314090D01*
X151906431Y-78101890D01*
X151920086Y-78034459D01*
X151949946Y-78079147D01*
X152431715Y-78401054D01*
X153000000Y-78514093D01*
X153568285Y-78401054D01*
X154050054Y-78079147D01*
X154371961Y-77597378D01*
X154485000Y-77029093D01*
X154485000Y-76970907D01*
X154371961Y-76402622D01*
X154050054Y-75920853D01*
X153568285Y-75598946D01*
X153000000Y-75485907D01*
X152431715Y-75598946D01*
X151949946Y-75920853D01*
X151922150Y-75962452D01*
X151913162Y-75914683D01*
X151774090Y-75698559D01*
X151561890Y-75553569D01*
X151310000Y-75502560D01*
X149610000Y-75502560D01*
X149374683Y-75546838D01*
X149158559Y-75685910D01*
X149013569Y-75898110D01*
X148962560Y-76150000D01*
X145289910Y-76150000D01*
X145275183Y-76118642D01*
X144846924Y-75728355D01*
X144436890Y-75558524D01*
X144207000Y-75679845D01*
X143953000Y-75679845D01*
X143723110Y-75558524D01*
X143313076Y-75728355D01*
X142884817Y-76118642D01*
X142817702Y-76261553D01*
X142590054Y-75920853D01*
X142108285Y-75598946D01*
X141540000Y-75485907D01*
X140971715Y-75598946D01*
X140489946Y-75920853D01*
X140462150Y-75962452D01*
X140453162Y-75914683D01*
X140314090Y-75698559D01*
X140101890Y-75553569D01*
X139850000Y-75502560D01*
X138150000Y-75502560D01*
X137914683Y-75546838D01*
X137698559Y-75685910D01*
X137553569Y-75898110D01*
X137502560Y-76150000D01*
X137502560Y-77850000D01*
X137546838Y-78085317D01*
X137685910Y-78301441D01*
X137865000Y-78423808D01*
X137865000Y-78925660D01*
X130600792Y-78925660D01*
X130080144Y-78405012D01*
X130221441Y-78314090D01*
X130366431Y-78101890D01*
X130380086Y-78034459D01*
X130409946Y-78079147D01*
X130891715Y-78401054D01*
X131460000Y-78514093D01*
X132028285Y-78401054D01*
X132510054Y-78079147D01*
X132737702Y-77738447D01*
X132804817Y-77881358D01*
X133233076Y-78271645D01*
X133643110Y-78441476D01*
X133873000Y-78320155D01*
X133873000Y-77127000D01*
X134127000Y-77127000D01*
X134127000Y-78320155D01*
X134356890Y-78441476D01*
X134766924Y-78271645D01*
X135195183Y-77881358D01*
X135441486Y-77356892D01*
X135320819Y-77127000D01*
X134127000Y-77127000D01*
X133873000Y-77127000D01*
X133853000Y-77127000D01*
X133853000Y-76873000D01*
X133873000Y-76873000D01*
X133873000Y-75679845D01*
X134127000Y-75679845D01*
X134127000Y-76873000D01*
X135320819Y-76873000D01*
X135441486Y-76643108D01*
X135195183Y-76118642D01*
X134766924Y-75728355D01*
X134356890Y-75558524D01*
X134127000Y-75679845D01*
X133873000Y-75679845D01*
X133643110Y-75558524D01*
X133233076Y-75728355D01*
X132804817Y-76118642D01*
X132737702Y-76261553D01*
X132510054Y-75920853D01*
X132028285Y-75598946D01*
X131460000Y-75485907D01*
X130891715Y-75598946D01*
X130409946Y-75920853D01*
X130382150Y-75962452D01*
X130373162Y-75914683D01*
X130234090Y-75698559D01*
X130021890Y-75553569D01*
X129770000Y-75502560D01*
X128070000Y-75502560D01*
X127834683Y-75546838D01*
X127618559Y-75685910D01*
X127473569Y-75898110D01*
X127422560Y-76150000D01*
X127422560Y-77850000D01*
X127466838Y-78085317D01*
X127605910Y-78301441D01*
X127785000Y-78423808D01*
X127785000Y-78850000D01*
X127871397Y-79284346D01*
X128099893Y-79626314D01*
X128117434Y-79652566D01*
X129328094Y-80863226D01*
X129696314Y-81109263D01*
X130130660Y-81195660D01*
X138529868Y-81195660D01*
X150656687Y-93322479D01*
X150171715Y-93418946D01*
X149689946Y-93740853D01*
X149470000Y-94070026D01*
X149250054Y-93740853D01*
X148768285Y-93418946D01*
X148200000Y-93305907D01*
X147631715Y-93418946D01*
X147149946Y-93740853D01*
X146930000Y-94070026D01*
X146710054Y-93740853D01*
X146228285Y-93418946D01*
X145660000Y-93305907D01*
X145091715Y-93418946D01*
X144609946Y-93740853D01*
X144382298Y-94081553D01*
X144315183Y-93938642D01*
X143886924Y-93548355D01*
X143476890Y-93378524D01*
X143247000Y-93499845D01*
X143247000Y-94693000D01*
X143267000Y-94693000D01*
X143267000Y-94947000D01*
X143247000Y-94947000D01*
X143247000Y-96140155D01*
X143476890Y-96261476D01*
X143886924Y-96091645D01*
X144315183Y-95701358D01*
X144382298Y-95558447D01*
X144609946Y-95899147D01*
X145091715Y-96221054D01*
X145660000Y-96334093D01*
X146228285Y-96221054D01*
X146710054Y-95899147D01*
X146930000Y-95569974D01*
X147149946Y-95899147D01*
X147631715Y-96221054D01*
X148200000Y-96334093D01*
X148768285Y-96221054D01*
X149250054Y-95899147D01*
X149470000Y-95569974D01*
X149689946Y-95899147D01*
X150171715Y-96221054D01*
X150551769Y-96296652D01*
X145543420Y-101305000D01*
X123053398Y-101305000D01*
X123036894Y-101265057D01*
X122610022Y-100837438D01*
X122622927Y-100802532D01*
X121650000Y-99829605D01*
X120677073Y-100802532D01*
X120690164Y-100837938D01*
X120264722Y-101262637D01*
X120015284Y-101863352D01*
X120014716Y-102513795D01*
X120263106Y-103114943D01*
X120607759Y-103460199D01*
X120264722Y-103802637D01*
X120015284Y-104403352D01*
X120014716Y-105053795D01*
X120263106Y-105654943D01*
X120607759Y-106000199D01*
X120264722Y-106342637D01*
X120015284Y-106943352D01*
X120014716Y-107593795D01*
X120263106Y-108194943D01*
X120607759Y-108540199D01*
X120264722Y-108882637D01*
X120015284Y-109483352D01*
X120014716Y-110133795D01*
X120263106Y-110734943D01*
X120607759Y-111080199D01*
X120264722Y-111422637D01*
X120015284Y-112023352D01*
X120014716Y-112673795D01*
X120263106Y-113274943D01*
X120607759Y-113620199D01*
X120264722Y-113962637D01*
X120015284Y-114563352D01*
X120014716Y-115213795D01*
X120263106Y-115814943D01*
X120722637Y-116275278D01*
X121323352Y-116524716D01*
X121973795Y-116525284D01*
X122574943Y-116276894D01*
X123035278Y-115817363D01*
X123284716Y-115216648D01*
X123285284Y-114566205D01*
X123036894Y-113965057D01*
X122692241Y-113619801D01*
X123035278Y-113277363D01*
X123284716Y-112676648D01*
X123285284Y-112026205D01*
X123036894Y-111425057D01*
X122692241Y-111079801D01*
X123035278Y-110737363D01*
X123284716Y-110136648D01*
X123285284Y-109486205D01*
X123036894Y-108885057D01*
X122692241Y-108539801D01*
X123035278Y-108197363D01*
X123284716Y-107596648D01*
X123285284Y-106946205D01*
X123036894Y-106345057D01*
X122692241Y-105999801D01*
X123035278Y-105657363D01*
X123052869Y-105615000D01*
X145909995Y-105615000D01*
X145910000Y-105615001D01*
X146192484Y-105558810D01*
X146248675Y-105547633D01*
X146535790Y-105355790D01*
X155601040Y-96290539D01*
X155820000Y-96334093D01*
X156388285Y-96221054D01*
X156870054Y-95899147D01*
X157090000Y-95569974D01*
X157309946Y-95899147D01*
X157791715Y-96221054D01*
X158360000Y-96334093D01*
X158928285Y-96221054D01*
X159410054Y-95899147D01*
X159630000Y-95569974D01*
X159849946Y-95899147D01*
X160331715Y-96221054D01*
X160900000Y-96334093D01*
X161468285Y-96221054D01*
X161950054Y-95899147D01*
X162170000Y-95569974D01*
X162389946Y-95899147D01*
X162871715Y-96221054D01*
X163440000Y-96334093D01*
X164008285Y-96221054D01*
X164490054Y-95899147D01*
X164710000Y-95569974D01*
X164929946Y-95899147D01*
X165411715Y-96221054D01*
X165980000Y-96334093D01*
X166548285Y-96221054D01*
X167030054Y-95899147D01*
X167250000Y-95569974D01*
X167469946Y-95899147D01*
X167951715Y-96221054D01*
X168520000Y-96334093D01*
X169088285Y-96221054D01*
X169570054Y-95899147D01*
X169790000Y-95569974D01*
X170009946Y-95899147D01*
X170491715Y-96221054D01*
X171060000Y-96334093D01*
X171628285Y-96221054D01*
X172110054Y-95899147D01*
X172330000Y-95569974D01*
X172549946Y-95899147D01*
X173031715Y-96221054D01*
X173600000Y-96334093D01*
X174168285Y-96221054D01*
X174650054Y-95899147D01*
X174870000Y-95569974D01*
X175089946Y-95899147D01*
X175571715Y-96221054D01*
X176140000Y-96334093D01*
X176708285Y-96221054D01*
X177190054Y-95899147D01*
X177410000Y-95569974D01*
X177629946Y-95899147D01*
X178111715Y-96221054D01*
X178680000Y-96334093D01*
X179248285Y-96221054D01*
X179730054Y-95899147D01*
X179950000Y-95569974D01*
X180169946Y-95899147D01*
X180651715Y-96221054D01*
X181220000Y-96334093D01*
X181788285Y-96221054D01*
X182270054Y-95899147D01*
X182490000Y-95569974D01*
X182709946Y-95899147D01*
X183191715Y-96221054D01*
X183760000Y-96334093D01*
X184328285Y-96221054D01*
X184810054Y-95899147D01*
X185037702Y-95558447D01*
X185104817Y-95701358D01*
X185533076Y-96091645D01*
X185943110Y-96261476D01*
X186173000Y-96140155D01*
X186173000Y-94947000D01*
X186153000Y-94947000D01*
X186153000Y-94693000D01*
X186173000Y-94693000D01*
X186173000Y-94673000D01*
X186427000Y-94673000D01*
X186427000Y-94693000D01*
X186447000Y-94693000D01*
X186447000Y-94947000D01*
X186427000Y-94947000D01*
X186427000Y-96140155D01*
X186656890Y-96261476D01*
X187066924Y-96091645D01*
X187495183Y-95701358D01*
X187562298Y-95558447D01*
X187789946Y-95899147D01*
X188271715Y-96221054D01*
X188840000Y-96334093D01*
X189408285Y-96221054D01*
X189890054Y-95899147D01*
X189917850Y-95857548D01*
X189926838Y-95905317D01*
X190065910Y-96121441D01*
X190278110Y-96266431D01*
X190530000Y-96317440D01*
X191865000Y-96317440D01*
X191865000Y-96529867D01*
X191197434Y-97197434D01*
X190951397Y-97565654D01*
X190865000Y-98000000D01*
X190865000Y-119176042D01*
X190826539Y-119214436D01*
X190615241Y-119723298D01*
X190614760Y-120274285D01*
X190825169Y-120783515D01*
X191214436Y-121173461D01*
X191723298Y-121384759D01*
X192274285Y-121385240D01*
X192783515Y-121174831D01*
X193173461Y-120785564D01*
X193290000Y-120504907D01*
X193290000Y-137290000D01*
X171595532Y-137290000D01*
X174735532Y-134150000D01*
X179502560Y-134150000D01*
X179502560Y-135850000D01*
X179546838Y-136085317D01*
X179685910Y-136301441D01*
X179898110Y-136446431D01*
X180150000Y-136497440D01*
X181850000Y-136497440D01*
X182085317Y-136453162D01*
X182301441Y-136314090D01*
X182446431Y-136101890D01*
X182460086Y-136034459D01*
X182489946Y-136079147D01*
X182971715Y-136401054D01*
X183540000Y-136514093D01*
X184108285Y-136401054D01*
X184590054Y-136079147D01*
X184911961Y-135597378D01*
X185025000Y-135029093D01*
X185025000Y-134970907D01*
X184911961Y-134402622D01*
X184642939Y-134000000D01*
X187290000Y-134000000D01*
X187496286Y-135037072D01*
X188083741Y-135916259D01*
X188962928Y-136503714D01*
X190000000Y-136710000D01*
X191037072Y-136503714D01*
X191916259Y-135916259D01*
X192503714Y-135037072D01*
X192710000Y-134000000D01*
X192503714Y-132962928D01*
X191916259Y-132083741D01*
X191037072Y-131496286D01*
X190000000Y-131290000D01*
X188962928Y-131496286D01*
X188083741Y-132083741D01*
X187496286Y-132962928D01*
X187290000Y-134000000D01*
X184642939Y-134000000D01*
X184590054Y-133920853D01*
X184108285Y-133598946D01*
X183540000Y-133485907D01*
X182971715Y-133598946D01*
X182489946Y-133920853D01*
X182462150Y-133962452D01*
X182453162Y-133914683D01*
X182314090Y-133698559D01*
X182101890Y-133553569D01*
X181850000Y-133502560D01*
X180150000Y-133502560D01*
X179914683Y-133546838D01*
X179698559Y-133685910D01*
X179553569Y-133898110D01*
X179502560Y-134150000D01*
X174735532Y-134150000D01*
X176338809Y-132546723D01*
X176495728Y-132515510D01*
X176915986Y-132234702D01*
X177196794Y-131814444D01*
X177295400Y-131318716D01*
X177295400Y-129921284D01*
X177196794Y-129425556D01*
X176915986Y-129005298D01*
X176753743Y-128896890D01*
X189558524Y-128896890D01*
X189728355Y-129306924D01*
X190118642Y-129735183D01*
X190643108Y-129981486D01*
X190873000Y-129860819D01*
X190873000Y-128667000D01*
X191127000Y-128667000D01*
X191127000Y-129860819D01*
X191356892Y-129981486D01*
X191881358Y-129735183D01*
X192271645Y-129306924D01*
X192441476Y-128896890D01*
X192320155Y-128667000D01*
X191127000Y-128667000D01*
X190873000Y-128667000D01*
X189679845Y-128667000D01*
X189558524Y-128896890D01*
X176753743Y-128896890D01*
X176495728Y-128724490D01*
X176000000Y-128625884D01*
X175504272Y-128724490D01*
X175084014Y-129005298D01*
X174803206Y-129425556D01*
X174730000Y-129793589D01*
X174656794Y-129425556D01*
X174375986Y-129005298D01*
X173955728Y-128724490D01*
X173460000Y-128625884D01*
X172964272Y-128724490D01*
X172544014Y-129005298D01*
X172263206Y-129425556D01*
X172190000Y-129793589D01*
X172116794Y-129425556D01*
X171835986Y-129005298D01*
X171415728Y-128724490D01*
X170920000Y-128625884D01*
X170424272Y-128724490D01*
X170004014Y-129005298D01*
X169723206Y-129425556D01*
X169655385Y-129766514D01*
X169528193Y-129346539D01*
X169206184Y-128953811D01*
X168758396Y-128714205D01*
X168707105Y-128706180D01*
X168507000Y-128830067D01*
X168507000Y-130493000D01*
X168527000Y-130493000D01*
X168527000Y-130747000D01*
X168507000Y-130747000D01*
X168507000Y-132409933D01*
X168707105Y-132533820D01*
X168758396Y-132525795D01*
X169206184Y-132286189D01*
X169528193Y-131893461D01*
X169655385Y-131473486D01*
X169723206Y-131814444D01*
X170004014Y-132234702D01*
X170424272Y-132515510D01*
X170920000Y-132614116D01*
X171415728Y-132515510D01*
X171835986Y-132234702D01*
X172116794Y-131814444D01*
X172190000Y-131446411D01*
X172263206Y-131814444D01*
X172544014Y-132234702D01*
X172964272Y-132515510D01*
X173127325Y-132547943D01*
X170260267Y-135415001D01*
X160002497Y-135415001D01*
X160084811Y-135216767D01*
X160085188Y-134785127D01*
X159920354Y-134386200D01*
X159885000Y-134350784D01*
X159885000Y-132262088D01*
X160264272Y-132515510D01*
X160760000Y-132614116D01*
X161255728Y-132515510D01*
X161675986Y-132234702D01*
X161956794Y-131814444D01*
X162030000Y-131446411D01*
X162103206Y-131814444D01*
X162384014Y-132234702D01*
X162804272Y-132515510D01*
X163300000Y-132614116D01*
X163795728Y-132515510D01*
X164215986Y-132234702D01*
X164496794Y-131814444D01*
X164564615Y-131473486D01*
X164691807Y-131893461D01*
X165013816Y-132286189D01*
X165461604Y-132525795D01*
X165512895Y-132533820D01*
X165713000Y-132409933D01*
X165713000Y-130747000D01*
X165967000Y-130747000D01*
X165967000Y-132409933D01*
X166167105Y-132533820D01*
X166218396Y-132525795D01*
X166666184Y-132286189D01*
X166988193Y-131893461D01*
X167110000Y-131491268D01*
X167231807Y-131893461D01*
X167553816Y-132286189D01*
X168001604Y-132525795D01*
X168052895Y-132533820D01*
X168253000Y-132409933D01*
X168253000Y-130747000D01*
X165967000Y-130747000D01*
X165713000Y-130747000D01*
X165693000Y-130747000D01*
X165693000Y-130493000D01*
X165713000Y-130493000D01*
X165713000Y-128830067D01*
X165967000Y-128830067D01*
X165967000Y-130493000D01*
X168253000Y-130493000D01*
X168253000Y-128830067D01*
X168052895Y-128706180D01*
X168001604Y-128714205D01*
X167553816Y-128953811D01*
X167231807Y-129346539D01*
X167110000Y-129748732D01*
X166988193Y-129346539D01*
X166666184Y-128953811D01*
X166218396Y-128714205D01*
X166167105Y-128706180D01*
X165967000Y-128830067D01*
X165713000Y-128830067D01*
X165512895Y-128706180D01*
X165461604Y-128714205D01*
X165013816Y-128953811D01*
X164691807Y-129346539D01*
X164564615Y-129766514D01*
X164496794Y-129425556D01*
X164215986Y-129005298D01*
X163795728Y-128724490D01*
X163300000Y-128625884D01*
X162804272Y-128724490D01*
X162384014Y-129005298D01*
X162103206Y-129425556D01*
X162030000Y-129793589D01*
X161956794Y-129425556D01*
X161675986Y-129005298D01*
X161255728Y-128724490D01*
X160760000Y-128625884D01*
X160264272Y-128724490D01*
X159844014Y-129005298D01*
X159563206Y-129425556D01*
X159490000Y-129793589D01*
X159416794Y-129425556D01*
X159135986Y-129005298D01*
X158715728Y-128724490D01*
X158220000Y-128625884D01*
X157724272Y-128724490D01*
X157304014Y-129005298D01*
X157023206Y-129425556D01*
X156924600Y-129921284D01*
X156924600Y-131318716D01*
X157023206Y-131814444D01*
X157304014Y-132234702D01*
X157724272Y-132515510D01*
X158115000Y-132593230D01*
X158115000Y-134350373D01*
X158080718Y-134384595D01*
X157915189Y-134783233D01*
X157915122Y-134859991D01*
X152252565Y-129197434D01*
X151965013Y-129005298D01*
X151884345Y-128951397D01*
X151449999Y-128865000D01*
X128823958Y-128865000D01*
X128785564Y-128826539D01*
X128276702Y-128615241D01*
X127725715Y-128614760D01*
X127216485Y-128825169D01*
X126826539Y-129214436D01*
X126615241Y-129723298D01*
X126614760Y-130274285D01*
X126825169Y-130783515D01*
X127214436Y-131173461D01*
X127723298Y-131384759D01*
X128274285Y-131385240D01*
X128783515Y-131174831D01*
X128823415Y-131135000D01*
X150979867Y-131135000D01*
X157134867Y-137290000D01*
X119710000Y-137290000D01*
X119710000Y-134000000D01*
X120290000Y-134000000D01*
X120496286Y-135037072D01*
X121083741Y-135916259D01*
X121962928Y-136503714D01*
X123000000Y-136710000D01*
X124037072Y-136503714D01*
X124916259Y-135916259D01*
X125503714Y-135037072D01*
X125680163Y-134150000D01*
X148502560Y-134150000D01*
X148502560Y-135850000D01*
X148546838Y-136085317D01*
X148685910Y-136301441D01*
X148898110Y-136446431D01*
X149150000Y-136497440D01*
X150850000Y-136497440D01*
X151085317Y-136453162D01*
X151301441Y-136314090D01*
X151446431Y-136101890D01*
X151460086Y-136034459D01*
X151489946Y-136079147D01*
X151971715Y-136401054D01*
X152540000Y-136514093D01*
X153108285Y-136401054D01*
X153590054Y-136079147D01*
X153911961Y-135597378D01*
X154025000Y-135029093D01*
X154025000Y-134970907D01*
X153911961Y-134402622D01*
X153590054Y-133920853D01*
X153108285Y-133598946D01*
X152540000Y-133485907D01*
X151971715Y-133598946D01*
X151489946Y-133920853D01*
X151462150Y-133962452D01*
X151453162Y-133914683D01*
X151314090Y-133698559D01*
X151101890Y-133553569D01*
X150850000Y-133502560D01*
X149150000Y-133502560D01*
X148914683Y-133546838D01*
X148698559Y-133685910D01*
X148553569Y-133898110D01*
X148502560Y-134150000D01*
X125680163Y-134150000D01*
X125710000Y-134000000D01*
X125503714Y-132962928D01*
X124916259Y-132083741D01*
X124037072Y-131496286D01*
X123000000Y-131290000D01*
X121962928Y-131496286D01*
X121083741Y-132083741D01*
X120496286Y-132962928D01*
X120290000Y-134000000D01*
X119710000Y-134000000D01*
X119710000Y-126214873D01*
X126914812Y-126214873D01*
X127079646Y-126613800D01*
X127384595Y-126919282D01*
X127783233Y-127084811D01*
X128214873Y-127085188D01*
X128613800Y-126920354D01*
X128919282Y-126615405D01*
X129084811Y-126216767D01*
X129084855Y-126166725D01*
X130366579Y-124885000D01*
X149499995Y-124885000D01*
X149500000Y-124885001D01*
X149782484Y-124828810D01*
X149838675Y-124817633D01*
X150125790Y-124625790D01*
X155545788Y-119205791D01*
X155545791Y-119205789D01*
X155551041Y-119200539D01*
X155770000Y-119244093D01*
X156338285Y-119131054D01*
X156820054Y-118809147D01*
X157040000Y-118479974D01*
X157259946Y-118809147D01*
X157741715Y-119131054D01*
X158310000Y-119244093D01*
X158878285Y-119131054D01*
X159360054Y-118809147D01*
X159580000Y-118479974D01*
X159799946Y-118809147D01*
X160281715Y-119131054D01*
X160850000Y-119244093D01*
X161418285Y-119131054D01*
X161900054Y-118809147D01*
X162120000Y-118479974D01*
X162339946Y-118809147D01*
X162821715Y-119131054D01*
X162920303Y-119150664D01*
X162817116Y-119171190D01*
X162760925Y-119182367D01*
X162473810Y-119374210D01*
X162473808Y-119374213D01*
X160828509Y-121019511D01*
X160760000Y-121005884D01*
X160264272Y-121104490D01*
X159844014Y-121385298D01*
X159563206Y-121805556D01*
X159490000Y-122173589D01*
X159416794Y-121805556D01*
X159135986Y-121385298D01*
X158715728Y-121104490D01*
X158220000Y-121005884D01*
X157724272Y-121104490D01*
X157304014Y-121385298D01*
X157023206Y-121805556D01*
X156924600Y-122301284D01*
X156924600Y-123698716D01*
X157023206Y-124194444D01*
X157304014Y-124614702D01*
X157724272Y-124895510D01*
X158220000Y-124994116D01*
X158715728Y-124895510D01*
X159135986Y-124614702D01*
X159416794Y-124194444D01*
X159490000Y-123826411D01*
X159563206Y-124194444D01*
X159844014Y-124614702D01*
X160264272Y-124895510D01*
X160760000Y-124994116D01*
X161255728Y-124895510D01*
X161675986Y-124614702D01*
X161956794Y-124194444D01*
X162030000Y-123826411D01*
X162103206Y-124194444D01*
X162384014Y-124614702D01*
X162804272Y-124895510D01*
X163300000Y-124994116D01*
X163795728Y-124895510D01*
X164215986Y-124614702D01*
X164496794Y-124194444D01*
X164564615Y-123853486D01*
X164691807Y-124273461D01*
X165013816Y-124666189D01*
X165461604Y-124905795D01*
X165512895Y-124913820D01*
X165713000Y-124789933D01*
X165713000Y-123127000D01*
X165967000Y-123127000D01*
X165967000Y-124789933D01*
X166167105Y-124913820D01*
X166218396Y-124905795D01*
X166666184Y-124666189D01*
X166988193Y-124273461D01*
X167110000Y-123871268D01*
X167231807Y-124273461D01*
X167553816Y-124666189D01*
X168001604Y-124905795D01*
X168052895Y-124913820D01*
X168253000Y-124789933D01*
X168253000Y-123127000D01*
X165967000Y-123127000D01*
X165713000Y-123127000D01*
X165693000Y-123127000D01*
X165693000Y-122873000D01*
X165713000Y-122873000D01*
X165713000Y-121210067D01*
X165967000Y-121210067D01*
X165967000Y-122873000D01*
X168253000Y-122873000D01*
X168253000Y-121210067D01*
X168052895Y-121086180D01*
X168001604Y-121094205D01*
X167553816Y-121333811D01*
X167231807Y-121726539D01*
X167110000Y-122128732D01*
X166988193Y-121726539D01*
X166666184Y-121333811D01*
X166218396Y-121094205D01*
X166167105Y-121086180D01*
X165967000Y-121210067D01*
X165713000Y-121210067D01*
X165512895Y-121086180D01*
X165461604Y-121094205D01*
X165013816Y-121333811D01*
X164691807Y-121726539D01*
X164564615Y-122146514D01*
X164496794Y-121805556D01*
X164215986Y-121385298D01*
X163795728Y-121104490D01*
X163337780Y-121013399D01*
X163466179Y-120885000D01*
X168739995Y-120885000D01*
X168740000Y-120885001D01*
X169022484Y-120828810D01*
X169078675Y-120817633D01*
X169365790Y-120625790D01*
X170791040Y-119200539D01*
X171010000Y-119244093D01*
X171578285Y-119131054D01*
X172060054Y-118809147D01*
X172280000Y-118479974D01*
X172499946Y-118809147D01*
X172981715Y-119131054D01*
X173550000Y-119244093D01*
X174118285Y-119131054D01*
X174600054Y-118809147D01*
X174820000Y-118479974D01*
X175039946Y-118809147D01*
X175521715Y-119131054D01*
X176090000Y-119244093D01*
X176658285Y-119131054D01*
X177140054Y-118809147D01*
X177360000Y-118479974D01*
X177495000Y-118682016D01*
X177495000Y-123899868D01*
X177189484Y-124205384D01*
X177196794Y-124194444D01*
X177295400Y-123698716D01*
X177295400Y-122301284D01*
X177196794Y-121805556D01*
X176915986Y-121385298D01*
X176495728Y-121104490D01*
X176000000Y-121005884D01*
X175504272Y-121104490D01*
X175084014Y-121385298D01*
X174803206Y-121805556D01*
X174730000Y-122173589D01*
X174656794Y-121805556D01*
X174375986Y-121385298D01*
X173955728Y-121104490D01*
X173460000Y-121005884D01*
X172964272Y-121104490D01*
X172544014Y-121385298D01*
X172263206Y-121805556D01*
X172190000Y-122173589D01*
X172116794Y-121805556D01*
X171835986Y-121385298D01*
X171415728Y-121104490D01*
X170920000Y-121005884D01*
X170424272Y-121104490D01*
X170004014Y-121385298D01*
X169723206Y-121805556D01*
X169655385Y-122146514D01*
X169528193Y-121726539D01*
X169206184Y-121333811D01*
X168758396Y-121094205D01*
X168707105Y-121086180D01*
X168507000Y-121210067D01*
X168507000Y-122873000D01*
X168527000Y-122873000D01*
X168527000Y-123127000D01*
X168507000Y-123127000D01*
X168507000Y-124789933D01*
X168707105Y-124913820D01*
X168758396Y-124905795D01*
X169206184Y-124666189D01*
X169528193Y-124273461D01*
X169655385Y-123853486D01*
X169723206Y-124194444D01*
X170004014Y-124614702D01*
X170424272Y-124895510D01*
X170920000Y-124994116D01*
X171415728Y-124895510D01*
X171835986Y-124614702D01*
X172116794Y-124194444D01*
X172190000Y-123826411D01*
X172263206Y-124194444D01*
X172544014Y-124614702D01*
X172964272Y-124895510D01*
X173460000Y-124994116D01*
X173955728Y-124895510D01*
X174375986Y-124614702D01*
X174656794Y-124194444D01*
X174730000Y-123826411D01*
X174803206Y-124194444D01*
X175084014Y-124614702D01*
X175504272Y-124895510D01*
X176000000Y-124994116D01*
X176495728Y-124895510D01*
X176506668Y-124888200D01*
X175529868Y-125865000D01*
X166823958Y-125865000D01*
X166785564Y-125826539D01*
X166276702Y-125615241D01*
X165725715Y-125614760D01*
X165216485Y-125825169D01*
X164826539Y-126214436D01*
X164615241Y-126723298D01*
X164614760Y-127274285D01*
X164825169Y-127783515D01*
X165214436Y-128173461D01*
X165723298Y-128384759D01*
X166274285Y-128385240D01*
X166783515Y-128174831D01*
X166823415Y-128135000D01*
X176000000Y-128135000D01*
X176434346Y-128048603D01*
X176802566Y-127802566D01*
X179432566Y-125172566D01*
X179447644Y-125150000D01*
X189502560Y-125150000D01*
X189502560Y-126850000D01*
X189546838Y-127085317D01*
X189685910Y-127301441D01*
X189898110Y-127446431D01*
X190006107Y-127468301D01*
X189728355Y-127773076D01*
X189558524Y-128183110D01*
X189679845Y-128413000D01*
X190873000Y-128413000D01*
X190873000Y-128393000D01*
X191127000Y-128393000D01*
X191127000Y-128413000D01*
X192320155Y-128413000D01*
X192441476Y-128183110D01*
X192271645Y-127773076D01*
X191995499Y-127470063D01*
X192085317Y-127453162D01*
X192301441Y-127314090D01*
X192446431Y-127101890D01*
X192497440Y-126850000D01*
X192497440Y-125150000D01*
X192453162Y-124914683D01*
X192314090Y-124698559D01*
X192101890Y-124553569D01*
X191850000Y-124502560D01*
X190150000Y-124502560D01*
X189914683Y-124546838D01*
X189698559Y-124685910D01*
X189553569Y-124898110D01*
X189502560Y-125150000D01*
X179447644Y-125150000D01*
X179678604Y-124804345D01*
X179765000Y-124370000D01*
X179765000Y-118682016D01*
X179907702Y-118468447D01*
X179974817Y-118611358D01*
X180403076Y-119001645D01*
X180813110Y-119171476D01*
X181043000Y-119050155D01*
X181043000Y-117857000D01*
X181297000Y-117857000D01*
X181297000Y-119050155D01*
X181526890Y-119171476D01*
X181936924Y-119001645D01*
X182365183Y-118611358D01*
X182611486Y-118086892D01*
X182490819Y-117857000D01*
X181297000Y-117857000D01*
X181043000Y-117857000D01*
X181023000Y-117857000D01*
X181023000Y-117603000D01*
X181043000Y-117603000D01*
X181043000Y-116409845D01*
X181297000Y-116409845D01*
X181297000Y-117603000D01*
X182490819Y-117603000D01*
X182611486Y-117373108D01*
X182365183Y-116848642D01*
X181936924Y-116458355D01*
X181526890Y-116288524D01*
X181297000Y-116409845D01*
X181043000Y-116409845D01*
X180813110Y-116288524D01*
X180403076Y-116458355D01*
X179974817Y-116848642D01*
X179907702Y-116991553D01*
X179680054Y-116650853D01*
X179198285Y-116328946D01*
X178630000Y-116215907D01*
X178061715Y-116328946D01*
X177579946Y-116650853D01*
X177360000Y-116980026D01*
X177140054Y-116650853D01*
X176658285Y-116328946D01*
X176090000Y-116215907D01*
X175521715Y-116328946D01*
X175039946Y-116650853D01*
X174820000Y-116980026D01*
X174600054Y-116650853D01*
X174118285Y-116328946D01*
X173550000Y-116215907D01*
X172981715Y-116328946D01*
X172499946Y-116650853D01*
X172280000Y-116980026D01*
X172060054Y-116650853D01*
X171578285Y-116328946D01*
X171010000Y-116215907D01*
X170441715Y-116328946D01*
X169959946Y-116650853D01*
X169740000Y-116980026D01*
X169520054Y-116650853D01*
X169038285Y-116328946D01*
X168470000Y-116215907D01*
X167901715Y-116328946D01*
X167419946Y-116650853D01*
X167200000Y-116980026D01*
X166980054Y-116650853D01*
X166498285Y-116328946D01*
X165930000Y-116215907D01*
X165361715Y-116328946D01*
X164879946Y-116650853D01*
X164660000Y-116980026D01*
X164440054Y-116650853D01*
X163958285Y-116328946D01*
X163390000Y-116215907D01*
X162821715Y-116328946D01*
X162339946Y-116650853D01*
X162120000Y-116980026D01*
X161900054Y-116650853D01*
X161418285Y-116328946D01*
X160850000Y-116215907D01*
X160281715Y-116328946D01*
X159799946Y-116650853D01*
X159580000Y-116980026D01*
X159360054Y-116650853D01*
X158878285Y-116328946D01*
X158310000Y-116215907D01*
X157741715Y-116328946D01*
X157259946Y-116650853D01*
X157040000Y-116980026D01*
X156820054Y-116650853D01*
X156338285Y-116328946D01*
X155770000Y-116215907D01*
X155201715Y-116328946D01*
X154719946Y-116650853D01*
X154500000Y-116980026D01*
X154280054Y-116650853D01*
X153798285Y-116328946D01*
X153230000Y-116215907D01*
X152661715Y-116328946D01*
X152179946Y-116650853D01*
X151960000Y-116980026D01*
X151740054Y-116650853D01*
X151258285Y-116328946D01*
X150690000Y-116215907D01*
X150121715Y-116328946D01*
X149639946Y-116650853D01*
X149420000Y-116980026D01*
X149200054Y-116650853D01*
X148718285Y-116328946D01*
X148150000Y-116215907D01*
X147581715Y-116328946D01*
X147099946Y-116650853D01*
X146880000Y-116980026D01*
X146660054Y-116650853D01*
X146178285Y-116328946D01*
X145610000Y-116215907D01*
X145041715Y-116328946D01*
X144559946Y-116650853D01*
X144532150Y-116692452D01*
X144523162Y-116644683D01*
X144384090Y-116428559D01*
X144171890Y-116283569D01*
X143920000Y-116232560D01*
X142220000Y-116232560D01*
X141984683Y-116276838D01*
X141768559Y-116415910D01*
X141623569Y-116628110D01*
X141572560Y-116880000D01*
X141572560Y-118580000D01*
X141616838Y-118815317D01*
X141755910Y-119031441D01*
X141968110Y-119176431D01*
X142220000Y-119227440D01*
X143920000Y-119227440D01*
X144155317Y-119183162D01*
X144371441Y-119044090D01*
X144516431Y-118831890D01*
X144530086Y-118764459D01*
X144559946Y-118809147D01*
X145041715Y-119131054D01*
X145610000Y-119244093D01*
X146178285Y-119131054D01*
X146660054Y-118809147D01*
X146880000Y-118479974D01*
X147099946Y-118809147D01*
X147581715Y-119131054D01*
X148150000Y-119244093D01*
X148718285Y-119131054D01*
X149200054Y-118809147D01*
X149420000Y-118479974D01*
X149639946Y-118809147D01*
X150121715Y-119131054D01*
X150690000Y-119244093D01*
X151258285Y-119131054D01*
X151740054Y-118809147D01*
X151960000Y-118479974D01*
X152179946Y-118809147D01*
X152661715Y-119131054D01*
X153041769Y-119206652D01*
X149133420Y-123115000D01*
X130000005Y-123115000D01*
X130000000Y-123114999D01*
X129661325Y-123182367D01*
X129374210Y-123374210D01*
X129374208Y-123374213D01*
X127833566Y-124914854D01*
X127785127Y-124914812D01*
X127386200Y-125079646D01*
X127080718Y-125384595D01*
X126915189Y-125783233D01*
X126914812Y-126214873D01*
X119710000Y-126214873D01*
X119710000Y-99385461D01*
X120004092Y-99385461D01*
X120028144Y-100035460D01*
X120230613Y-100524264D01*
X120497468Y-100622927D01*
X121470395Y-99650000D01*
X121829605Y-99650000D01*
X122802532Y-100622927D01*
X123069387Y-100524264D01*
X123295908Y-99914539D01*
X123271856Y-99264540D01*
X123069387Y-98775736D01*
X122802532Y-98677073D01*
X121829605Y-99650000D01*
X121470395Y-99650000D01*
X120497468Y-98677073D01*
X120230613Y-98775736D01*
X120004092Y-99385461D01*
X119710000Y-99385461D01*
X119710000Y-97433795D01*
X120014716Y-97433795D01*
X120263106Y-98034943D01*
X120689978Y-98462562D01*
X120677073Y-98497468D01*
X121650000Y-99470395D01*
X122622927Y-98497468D01*
X122609836Y-98462062D01*
X123035278Y-98037363D01*
X123284716Y-97436648D01*
X123285284Y-96786205D01*
X123036894Y-96185057D01*
X122577363Y-95724722D01*
X121976648Y-95475284D01*
X121326205Y-95474716D01*
X120725057Y-95723106D01*
X120264722Y-96182637D01*
X120015284Y-96783352D01*
X120014716Y-97433795D01*
X119710000Y-97433795D01*
X119710000Y-95176892D01*
X141678514Y-95176892D01*
X141924817Y-95701358D01*
X142353076Y-96091645D01*
X142763110Y-96261476D01*
X142993000Y-96140155D01*
X142993000Y-94947000D01*
X141799181Y-94947000D01*
X141678514Y-95176892D01*
X119710000Y-95176892D01*
X119710000Y-94463108D01*
X141678514Y-94463108D01*
X141799181Y-94693000D01*
X142993000Y-94693000D01*
X142993000Y-93499845D01*
X142763110Y-93378524D01*
X142353076Y-93548355D01*
X141924817Y-93938642D01*
X141678514Y-94463108D01*
X119710000Y-94463108D01*
X119710000Y-78000000D01*
X120290000Y-78000000D01*
X120496286Y-79037072D01*
X121083741Y-79916259D01*
X121962928Y-80503714D01*
X123000000Y-80710000D01*
X124037072Y-80503714D01*
X124916259Y-79916259D01*
X125503714Y-79037072D01*
X125710000Y-78000000D01*
X125503714Y-76962928D01*
X124916259Y-76083741D01*
X124037072Y-75496286D01*
X123000000Y-75290000D01*
X121962928Y-75496286D01*
X121083741Y-76083741D01*
X120496286Y-76962928D01*
X120290000Y-78000000D01*
X119710000Y-78000000D01*
X119710000Y-74710000D01*
X193290000Y-74710000D01*
X193290000Y-87495216D01*
X193290000Y-87495216D01*
G37*
X193290000Y-87495216D02*
X193174831Y-87216485D01*
X192785564Y-86826539D01*
X192276702Y-86615241D01*
X191725715Y-86614760D01*
X191216485Y-86825169D01*
X191176585Y-86865000D01*
X189470132Y-86865000D01*
X181102572Y-78497440D01*
X181850000Y-78497440D01*
X182085317Y-78453162D01*
X182301441Y-78314090D01*
X182446431Y-78101890D01*
X182460086Y-78034459D01*
X182489946Y-78079147D01*
X182971715Y-78401054D01*
X183540000Y-78514093D01*
X184108285Y-78401054D01*
X184590054Y-78079147D01*
X184642938Y-78000000D01*
X187290000Y-78000000D01*
X187496286Y-79037072D01*
X188083741Y-79916259D01*
X188962928Y-80503714D01*
X190000000Y-80710000D01*
X191037072Y-80503714D01*
X191916259Y-79916259D01*
X192503714Y-79037072D01*
X192710000Y-78000000D01*
X192503714Y-76962928D01*
X191916259Y-76083741D01*
X191037072Y-75496286D01*
X190000000Y-75290000D01*
X188962928Y-75496286D01*
X188083741Y-76083741D01*
X187496286Y-76962928D01*
X187290000Y-78000000D01*
X184642938Y-78000000D01*
X184911961Y-77597378D01*
X185025000Y-77029093D01*
X185025000Y-76970907D01*
X184911961Y-76402622D01*
X184590054Y-75920853D01*
X184108285Y-75598946D01*
X183540000Y-75485907D01*
X182971715Y-75598946D01*
X182489946Y-75920853D01*
X182462150Y-75962452D01*
X182453162Y-75914683D01*
X182314090Y-75698559D01*
X182101890Y-75553569D01*
X181850000Y-75502560D01*
X180150000Y-75502560D01*
X179914683Y-75546838D01*
X179698559Y-75685910D01*
X179553569Y-75898110D01*
X179502560Y-76150000D01*
X179502560Y-76996976D01*
X179434346Y-76951397D01*
X179000000Y-76865000D01*
X160829600Y-76865000D01*
X160395254Y-76951397D01*
X160191065Y-77087832D01*
X160027034Y-77197434D01*
X157771191Y-79453277D01*
X157614272Y-79484490D01*
X157194014Y-79765298D01*
X156913206Y-80185556D01*
X156814600Y-80681284D01*
X156814600Y-82078716D01*
X156913206Y-82574444D01*
X157194014Y-82994702D01*
X157614272Y-83275510D01*
X158110000Y-83374116D01*
X158605728Y-83275510D01*
X159025986Y-82994702D01*
X159306794Y-82574444D01*
X159380000Y-82206411D01*
X159453206Y-82574444D01*
X159734014Y-82994702D01*
X160154272Y-83275510D01*
X160650000Y-83374116D01*
X161145728Y-83275510D01*
X161565986Y-82994702D01*
X161846794Y-82574444D01*
X161920000Y-82206411D01*
X161993206Y-82574444D01*
X162274014Y-82994702D01*
X162694272Y-83275510D01*
X163190000Y-83374116D01*
X163685728Y-83275510D01*
X164105986Y-82994702D01*
X164386794Y-82574444D01*
X164454615Y-82233486D01*
X164581807Y-82653461D01*
X164903816Y-83046189D01*
X165351604Y-83285795D01*
X165402895Y-83293820D01*
X165603000Y-83169933D01*
X165603000Y-81507000D01*
X165857000Y-81507000D01*
X165857000Y-83169933D01*
X166057105Y-83293820D01*
X166108396Y-83285795D01*
X166556184Y-83046189D01*
X166878193Y-82653461D01*
X167000000Y-82251268D01*
X167121807Y-82653461D01*
X167443816Y-83046189D01*
X167891604Y-83285795D01*
X167942895Y-83293820D01*
X168143000Y-83169933D01*
X168143000Y-81507000D01*
X165857000Y-81507000D01*
X165603000Y-81507000D01*
X165583000Y-81507000D01*
X165583000Y-81253000D01*
X165603000Y-81253000D01*
X165603000Y-79590067D01*
X165857000Y-79590067D01*
X165857000Y-81253000D01*
X168143000Y-81253000D01*
X168143000Y-79590067D01*
X168397000Y-79590067D01*
X168397000Y-81253000D01*
X168417000Y-81253000D01*
X168417000Y-81507000D01*
X168397000Y-81507000D01*
X168397000Y-83169933D01*
X168597105Y-83293820D01*
X168648396Y-83285795D01*
X169096184Y-83046189D01*
X169418193Y-82653461D01*
X169545385Y-82233486D01*
X169613206Y-82574444D01*
X169894014Y-82994702D01*
X170314272Y-83275510D01*
X170810000Y-83374116D01*
X171161191Y-83304260D01*
X171080716Y-83384595D01*
X170915187Y-83783233D01*
X170914810Y-84214873D01*
X171079644Y-84613800D01*
X171384593Y-84919282D01*
X171783231Y-85084811D01*
X172214871Y-85085188D01*
X172613798Y-84920354D01*
X172649214Y-84885000D01*
X176350379Y-84885000D01*
X176384601Y-84919282D01*
X176783239Y-85084811D01*
X177214879Y-85085188D01*
X177613806Y-84920354D01*
X177919288Y-84615405D01*
X178084817Y-84216767D01*
X178085194Y-83785127D01*
X177920360Y-83386200D01*
X177615411Y-83080718D01*
X177216773Y-82915189D01*
X176859324Y-82914877D01*
X177086794Y-82574444D01*
X177185400Y-82078716D01*
X177185400Y-80681284D01*
X177086794Y-80185556D01*
X176805986Y-79765298D01*
X176385728Y-79484490D01*
X175890000Y-79385884D01*
X175394272Y-79484490D01*
X174974014Y-79765298D01*
X174693206Y-80185556D01*
X174620000Y-80553589D01*
X174546794Y-80185556D01*
X174265986Y-79765298D01*
X173845728Y-79484490D01*
X173350000Y-79385884D01*
X172854272Y-79484490D01*
X172434014Y-79765298D01*
X172153206Y-80185556D01*
X172080000Y-80553589D01*
X172006794Y-80185556D01*
X171725986Y-79765298D01*
X171305728Y-79484490D01*
X170810000Y-79385884D01*
X170314272Y-79484490D01*
X169894014Y-79765298D01*
X169613206Y-80185556D01*
X169545385Y-80526514D01*
X169418193Y-80106539D01*
X169096184Y-79713811D01*
X168648396Y-79474205D01*
X168597105Y-79466180D01*
X168397000Y-79590067D01*
X168143000Y-79590067D01*
X167942895Y-79466180D01*
X167891604Y-79474205D01*
X167443816Y-79713811D01*
X167121807Y-80106539D01*
X167000000Y-80508732D01*
X166878193Y-80106539D01*
X166556184Y-79713811D01*
X166108396Y-79474205D01*
X166057105Y-79466180D01*
X165857000Y-79590067D01*
X165603000Y-79590067D01*
X165402895Y-79466180D01*
X165351604Y-79474205D01*
X164903816Y-79713811D01*
X164581807Y-80106539D01*
X164454615Y-80526514D01*
X164386794Y-80185556D01*
X164105986Y-79765298D01*
X163685728Y-79484490D01*
X163190000Y-79385884D01*
X162694272Y-79484490D01*
X162274014Y-79765298D01*
X161993206Y-80185556D01*
X161920000Y-80553589D01*
X161846794Y-80185556D01*
X161565986Y-79765298D01*
X161145728Y-79484490D01*
X160982675Y-79452057D01*
X161299732Y-79135000D01*
X178529868Y-79135000D01*
X188197434Y-88802566D01*
X188565655Y-89048604D01*
X189000000Y-89135000D01*
X191176042Y-89135000D01*
X191214436Y-89173461D01*
X191723298Y-89384759D01*
X192274285Y-89385240D01*
X192783515Y-89174831D01*
X193173461Y-88785564D01*
X193290000Y-88504907D01*
X193290000Y-92265264D01*
X193224347Y-92221396D01*
X192790001Y-92134999D01*
X181483648Y-92134999D01*
X177546082Y-88197434D01*
X177177862Y-87951397D01*
X177113247Y-87938544D01*
X177086794Y-87805556D01*
X176805986Y-87385298D01*
X176385728Y-87104490D01*
X176238848Y-87075274D01*
X176613800Y-86920346D01*
X176919282Y-86615397D01*
X177084811Y-86216759D01*
X177085188Y-85785119D01*
X176920354Y-85386192D01*
X176615405Y-85080710D01*
X176216767Y-84915181D01*
X175785127Y-84914804D01*
X175386200Y-85079638D01*
X175350776Y-85115000D01*
X173649627Y-85115000D01*
X173615405Y-85080718D01*
X173216767Y-84915189D01*
X172785127Y-84914812D01*
X172386200Y-85079646D01*
X172080718Y-85384595D01*
X171915189Y-85783233D01*
X171914812Y-86214873D01*
X172079646Y-86613800D01*
X172384595Y-86919282D01*
X172783233Y-87084811D01*
X172952462Y-87084959D01*
X172854272Y-87104490D01*
X172434014Y-87385298D01*
X172153206Y-87805556D01*
X172080000Y-88173589D01*
X172006794Y-87805556D01*
X171725986Y-87385298D01*
X171305728Y-87104490D01*
X170810000Y-87005884D01*
X170314272Y-87104490D01*
X169894014Y-87385298D01*
X169613206Y-87805556D01*
X169545385Y-88146514D01*
X169418193Y-87726539D01*
X169096184Y-87333811D01*
X168648396Y-87094205D01*
X168597105Y-87086180D01*
X168397000Y-87210067D01*
X168397000Y-88873000D01*
X168417000Y-88873000D01*
X168417000Y-89127000D01*
X168397000Y-89127000D01*
X168397000Y-89147000D01*
X168143000Y-89147000D01*
X168143000Y-89127000D01*
X165857000Y-89127000D01*
X165857000Y-89147000D01*
X165603000Y-89147000D01*
X165603000Y-89127000D01*
X165583000Y-89127000D01*
X165583000Y-88873000D01*
X165603000Y-88873000D01*
X165603000Y-87210067D01*
X165857000Y-87210067D01*
X165857000Y-88873000D01*
X168143000Y-88873000D01*
X168143000Y-87210067D01*
X167942895Y-87086180D01*
X167891604Y-87094205D01*
X167443816Y-87333811D01*
X167121807Y-87726539D01*
X167000000Y-88128732D01*
X166878193Y-87726539D01*
X166556184Y-87333811D01*
X166108396Y-87094205D01*
X166057105Y-87086180D01*
X165857000Y-87210067D01*
X165603000Y-87210067D01*
X165402895Y-87086180D01*
X165351604Y-87094205D01*
X164903816Y-87333811D01*
X164581807Y-87726539D01*
X164454615Y-88146514D01*
X164386794Y-87805556D01*
X164105986Y-87385298D01*
X163685728Y-87104490D01*
X163190000Y-87005884D01*
X162694272Y-87104490D01*
X162274014Y-87385298D01*
X161993206Y-87805556D01*
X161920000Y-88173589D01*
X161846794Y-87805556D01*
X161565986Y-87385298D01*
X161145728Y-87104490D01*
X160650000Y-87005884D01*
X160154272Y-87104490D01*
X159734014Y-87385298D01*
X159453206Y-87805556D01*
X159380000Y-88173589D01*
X159306794Y-87805556D01*
X159025986Y-87385298D01*
X158605728Y-87104490D01*
X158110000Y-87005884D01*
X157614272Y-87104490D01*
X157194014Y-87385298D01*
X156913206Y-87805556D01*
X156814600Y-88301284D01*
X156814600Y-89698716D01*
X156913206Y-90194444D01*
X157194014Y-90614702D01*
X157614272Y-90895510D01*
X158110000Y-90994116D01*
X158605728Y-90895510D01*
X159025986Y-90614702D01*
X159306794Y-90194444D01*
X159380000Y-89826411D01*
X159453206Y-90194444D01*
X159734014Y-90614702D01*
X160154272Y-90895510D01*
X160650000Y-90994116D01*
X161145728Y-90895510D01*
X161565986Y-90614702D01*
X161742464Y-90350585D01*
X161614522Y-90658703D01*
X161614145Y-91090343D01*
X161778979Y-91489270D01*
X162083928Y-91794752D01*
X162482566Y-91960281D01*
X162914206Y-91960658D01*
X163313133Y-91795824D01*
X163348549Y-91760470D01*
X172465165Y-91760470D01*
X172464812Y-92164873D01*
X172489625Y-92224924D01*
X172484345Y-92221396D01*
X172049999Y-92134999D01*
X152679471Y-92134999D01*
X140135000Y-79590528D01*
X140135000Y-78421192D01*
X140301441Y-78314090D01*
X140446431Y-78101890D01*
X140460086Y-78034459D01*
X140489946Y-78079147D01*
X140971715Y-78401054D01*
X141540000Y-78514093D01*
X142108285Y-78401054D01*
X142590054Y-78079147D01*
X142817702Y-77738447D01*
X142884817Y-77881358D01*
X143313076Y-78271645D01*
X143723110Y-78441476D01*
X143953000Y-78320155D01*
X143953000Y-77127000D01*
X144207000Y-77127000D01*
X144207000Y-78320155D01*
X144436890Y-78441476D01*
X144846924Y-78271645D01*
X145275183Y-77881358D01*
X145521486Y-77356892D01*
X145400819Y-77127000D01*
X144207000Y-77127000D01*
X143953000Y-77127000D01*
X143933000Y-77127000D01*
X143933000Y-76873000D01*
X143953000Y-76873000D01*
X143953000Y-75679845D01*
X144207000Y-75679845D01*
X144207000Y-76873000D01*
X145400819Y-76873000D01*
X145521486Y-76643108D01*
X145289910Y-76150000D01*
X148962560Y-76150000D01*
X148962560Y-77850000D01*
X149006838Y-78085317D01*
X149145910Y-78301441D01*
X149358110Y-78446431D01*
X149610000Y-78497440D01*
X151310000Y-78497440D01*
X151545317Y-78453162D01*
X151761441Y-78314090D01*
X151906431Y-78101890D01*
X151920086Y-78034459D01*
X151949946Y-78079147D01*
X152431715Y-78401054D01*
X153000000Y-78514093D01*
X153568285Y-78401054D01*
X154050054Y-78079147D01*
X154371961Y-77597378D01*
X154485000Y-77029093D01*
X154485000Y-76970907D01*
X154371961Y-76402622D01*
X154050054Y-75920853D01*
X153568285Y-75598946D01*
X153000000Y-75485907D01*
X152431715Y-75598946D01*
X151949946Y-75920853D01*
X151922150Y-75962452D01*
X151913162Y-75914683D01*
X151774090Y-75698559D01*
X151561890Y-75553569D01*
X151310000Y-75502560D01*
X149610000Y-75502560D01*
X149374683Y-75546838D01*
X149158559Y-75685910D01*
X149013569Y-75898110D01*
X148962560Y-76150000D01*
X145289910Y-76150000D01*
X145275183Y-76118642D01*
X144846924Y-75728355D01*
X144436890Y-75558524D01*
X144207000Y-75679845D01*
X143953000Y-75679845D01*
X143723110Y-75558524D01*
X143313076Y-75728355D01*
X142884817Y-76118642D01*
X142817702Y-76261553D01*
X142590054Y-75920853D01*
X142108285Y-75598946D01*
X141540000Y-75485907D01*
X140971715Y-75598946D01*
X140489946Y-75920853D01*
X140462150Y-75962452D01*
X140453162Y-75914683D01*
X140314090Y-75698559D01*
X140101890Y-75553569D01*
X139850000Y-75502560D01*
X138150000Y-75502560D01*
X137914683Y-75546838D01*
X137698559Y-75685910D01*
X137553569Y-75898110D01*
X137502560Y-76150000D01*
X137502560Y-77850000D01*
X137546838Y-78085317D01*
X137685910Y-78301441D01*
X137865000Y-78423808D01*
X137865000Y-78925660D01*
X130600792Y-78925660D01*
X130080144Y-78405012D01*
X130221441Y-78314090D01*
X130366431Y-78101890D01*
X130380086Y-78034459D01*
X130409946Y-78079147D01*
X130891715Y-78401054D01*
X131460000Y-78514093D01*
X132028285Y-78401054D01*
X132510054Y-78079147D01*
X132737702Y-77738447D01*
X132804817Y-77881358D01*
X133233076Y-78271645D01*
X133643110Y-78441476D01*
X133873000Y-78320155D01*
X133873000Y-77127000D01*
X134127000Y-77127000D01*
X134127000Y-78320155D01*
X134356890Y-78441476D01*
X134766924Y-78271645D01*
X135195183Y-77881358D01*
X135441486Y-77356892D01*
X135320819Y-77127000D01*
X134127000Y-77127000D01*
X133873000Y-77127000D01*
X133853000Y-77127000D01*
X133853000Y-76873000D01*
X133873000Y-76873000D01*
X133873000Y-75679845D01*
X134127000Y-75679845D01*
X134127000Y-76873000D01*
X135320819Y-76873000D01*
X135441486Y-76643108D01*
X135195183Y-76118642D01*
X134766924Y-75728355D01*
X134356890Y-75558524D01*
X134127000Y-75679845D01*
X133873000Y-75679845D01*
X133643110Y-75558524D01*
X133233076Y-75728355D01*
X132804817Y-76118642D01*
X132737702Y-76261553D01*
X132510054Y-75920853D01*
X132028285Y-75598946D01*
X131460000Y-75485907D01*
X130891715Y-75598946D01*
X130409946Y-75920853D01*
X130382150Y-75962452D01*
X130373162Y-75914683D01*
X130234090Y-75698559D01*
X130021890Y-75553569D01*
X129770000Y-75502560D01*
X128070000Y-75502560D01*
X127834683Y-75546838D01*
X127618559Y-75685910D01*
X127473569Y-75898110D01*
X127422560Y-76150000D01*
X127422560Y-77850000D01*
X127466838Y-78085317D01*
X127605910Y-78301441D01*
X127785000Y-78423808D01*
X127785000Y-78850000D01*
X127871397Y-79284346D01*
X128099893Y-79626314D01*
X128117434Y-79652566D01*
X129328094Y-80863226D01*
X129696314Y-81109263D01*
X130130660Y-81195660D01*
X138529868Y-81195660D01*
X150656687Y-93322479D01*
X150171715Y-93418946D01*
X149689946Y-93740853D01*
X149470000Y-94070026D01*
X149250054Y-93740853D01*
X148768285Y-93418946D01*
X148200000Y-93305907D01*
X147631715Y-93418946D01*
X147149946Y-93740853D01*
X146930000Y-94070026D01*
X146710054Y-93740853D01*
X146228285Y-93418946D01*
X145660000Y-93305907D01*
X145091715Y-93418946D01*
X144609946Y-93740853D01*
X144382298Y-94081553D01*
X144315183Y-93938642D01*
X143886924Y-93548355D01*
X143476890Y-93378524D01*
X143247000Y-93499845D01*
X143247000Y-94693000D01*
X143267000Y-94693000D01*
X143267000Y-94947000D01*
X143247000Y-94947000D01*
X143247000Y-96140155D01*
X143476890Y-96261476D01*
X143886924Y-96091645D01*
X144315183Y-95701358D01*
X144382298Y-95558447D01*
X144609946Y-95899147D01*
X145091715Y-96221054D01*
X145660000Y-96334093D01*
X146228285Y-96221054D01*
X146710054Y-95899147D01*
X146930000Y-95569974D01*
X147149946Y-95899147D01*
X147631715Y-96221054D01*
X148200000Y-96334093D01*
X148768285Y-96221054D01*
X149250054Y-95899147D01*
X149470000Y-95569974D01*
X149689946Y-95899147D01*
X150171715Y-96221054D01*
X150551769Y-96296652D01*
X145543420Y-101305000D01*
X123053398Y-101305000D01*
X123036894Y-101265057D01*
X122610022Y-100837438D01*
X122622927Y-100802532D01*
X121650000Y-99829605D01*
X120677073Y-100802532D01*
X120690164Y-100837938D01*
X120264722Y-101262637D01*
X120015284Y-101863352D01*
X120014716Y-102513795D01*
X120263106Y-103114943D01*
X120607759Y-103460199D01*
X120264722Y-103802637D01*
X120015284Y-104403352D01*
X120014716Y-105053795D01*
X120263106Y-105654943D01*
X120607759Y-106000199D01*
X120264722Y-106342637D01*
X120015284Y-106943352D01*
X120014716Y-107593795D01*
X120263106Y-108194943D01*
X120607759Y-108540199D01*
X120264722Y-108882637D01*
X120015284Y-109483352D01*
X120014716Y-110133795D01*
X120263106Y-110734943D01*
X120607759Y-111080199D01*
X120264722Y-111422637D01*
X120015284Y-112023352D01*
X120014716Y-112673795D01*
X120263106Y-113274943D01*
X120607759Y-113620199D01*
X120264722Y-113962637D01*
X120015284Y-114563352D01*
X120014716Y-115213795D01*
X120263106Y-115814943D01*
X120722637Y-116275278D01*
X121323352Y-116524716D01*
X121973795Y-116525284D01*
X122574943Y-116276894D01*
X123035278Y-115817363D01*
X123284716Y-115216648D01*
X123285284Y-114566205D01*
X123036894Y-113965057D01*
X122692241Y-113619801D01*
X123035278Y-113277363D01*
X123284716Y-112676648D01*
X123285284Y-112026205D01*
X123036894Y-111425057D01*
X122692241Y-111079801D01*
X123035278Y-110737363D01*
X123284716Y-110136648D01*
X123285284Y-109486205D01*
X123036894Y-108885057D01*
X122692241Y-108539801D01*
X123035278Y-108197363D01*
X123284716Y-107596648D01*
X123285284Y-106946205D01*
X123036894Y-106345057D01*
X122692241Y-105999801D01*
X123035278Y-105657363D01*
X123052869Y-105615000D01*
X145909995Y-105615000D01*
X145910000Y-105615001D01*
X146192484Y-105558810D01*
X146248675Y-105547633D01*
X146535790Y-105355790D01*
X155601040Y-96290539D01*
X155820000Y-96334093D01*
X156388285Y-96221054D01*
X156870054Y-95899147D01*
X157090000Y-95569974D01*
X157309946Y-95899147D01*
X157791715Y-96221054D01*
X158360000Y-96334093D01*
X158928285Y-96221054D01*
X159410054Y-95899147D01*
X159630000Y-95569974D01*
X159849946Y-95899147D01*
X160331715Y-96221054D01*
X160900000Y-96334093D01*
X161468285Y-96221054D01*
X161950054Y-95899147D01*
X162170000Y-95569974D01*
X162389946Y-95899147D01*
X162871715Y-96221054D01*
X163440000Y-96334093D01*
X164008285Y-96221054D01*
X164490054Y-95899147D01*
X164710000Y-95569974D01*
X164929946Y-95899147D01*
X165411715Y-96221054D01*
X165980000Y-96334093D01*
X166548285Y-96221054D01*
X167030054Y-95899147D01*
X167250000Y-95569974D01*
X167469946Y-95899147D01*
X167951715Y-96221054D01*
X168520000Y-96334093D01*
X169088285Y-96221054D01*
X169570054Y-95899147D01*
X169790000Y-95569974D01*
X170009946Y-95899147D01*
X170491715Y-96221054D01*
X171060000Y-96334093D01*
X171628285Y-96221054D01*
X172110054Y-95899147D01*
X172330000Y-95569974D01*
X172549946Y-95899147D01*
X173031715Y-96221054D01*
X173600000Y-96334093D01*
X174168285Y-96221054D01*
X174650054Y-95899147D01*
X174870000Y-95569974D01*
X175089946Y-95899147D01*
X175571715Y-96221054D01*
X176140000Y-96334093D01*
X176708285Y-96221054D01*
X177190054Y-95899147D01*
X177410000Y-95569974D01*
X177629946Y-95899147D01*
X178111715Y-96221054D01*
X178680000Y-96334093D01*
X179248285Y-96221054D01*
X179730054Y-95899147D01*
X179950000Y-95569974D01*
X180169946Y-95899147D01*
X180651715Y-96221054D01*
X181220000Y-96334093D01*
X181788285Y-96221054D01*
X182270054Y-95899147D01*
X182490000Y-95569974D01*
X182709946Y-95899147D01*
X183191715Y-96221054D01*
X183760000Y-96334093D01*
X184328285Y-96221054D01*
X184810054Y-95899147D01*
X185037702Y-95558447D01*
X185104817Y-95701358D01*
X185533076Y-96091645D01*
X185943110Y-96261476D01*
X186173000Y-96140155D01*
X186173000Y-94947000D01*
X186153000Y-94947000D01*
X186153000Y-94693000D01*
X186173000Y-94693000D01*
X186173000Y-94673000D01*
X186427000Y-94673000D01*
X186427000Y-94693000D01*
X186447000Y-94693000D01*
X186447000Y-94947000D01*
X186427000Y-94947000D01*
X186427000Y-96140155D01*
X186656890Y-96261476D01*
X187066924Y-96091645D01*
X187495183Y-95701358D01*
X187562298Y-95558447D01*
X187789946Y-95899147D01*
X188271715Y-96221054D01*
X188840000Y-96334093D01*
X189408285Y-96221054D01*
X189890054Y-95899147D01*
X189917850Y-95857548D01*
X189926838Y-95905317D01*
X190065910Y-96121441D01*
X190278110Y-96266431D01*
X190530000Y-96317440D01*
X191865000Y-96317440D01*
X191865000Y-96529867D01*
X191197434Y-97197434D01*
X190951397Y-97565654D01*
X190865000Y-98000000D01*
X190865000Y-119176042D01*
X190826539Y-119214436D01*
X190615241Y-119723298D01*
X190614760Y-120274285D01*
X190825169Y-120783515D01*
X191214436Y-121173461D01*
X191723298Y-121384759D01*
X192274285Y-121385240D01*
X192783515Y-121174831D01*
X193173461Y-120785564D01*
X193290000Y-120504907D01*
X193290000Y-137290000D01*
X171595532Y-137290000D01*
X174735532Y-134150000D01*
X179502560Y-134150000D01*
X179502560Y-135850000D01*
X179546838Y-136085317D01*
X179685910Y-136301441D01*
X179898110Y-136446431D01*
X180150000Y-136497440D01*
X181850000Y-136497440D01*
X182085317Y-136453162D01*
X182301441Y-136314090D01*
X182446431Y-136101890D01*
X182460086Y-136034459D01*
X182489946Y-136079147D01*
X182971715Y-136401054D01*
X183540000Y-136514093D01*
X184108285Y-136401054D01*
X184590054Y-136079147D01*
X184911961Y-135597378D01*
X185025000Y-135029093D01*
X185025000Y-134970907D01*
X184911961Y-134402622D01*
X184642939Y-134000000D01*
X187290000Y-134000000D01*
X187496286Y-135037072D01*
X188083741Y-135916259D01*
X188962928Y-136503714D01*
X190000000Y-136710000D01*
X191037072Y-136503714D01*
X191916259Y-135916259D01*
X192503714Y-135037072D01*
X192710000Y-134000000D01*
X192503714Y-132962928D01*
X191916259Y-132083741D01*
X191037072Y-131496286D01*
X190000000Y-131290000D01*
X188962928Y-131496286D01*
X188083741Y-132083741D01*
X187496286Y-132962928D01*
X187290000Y-134000000D01*
X184642939Y-134000000D01*
X184590054Y-133920853D01*
X184108285Y-133598946D01*
X183540000Y-133485907D01*
X182971715Y-133598946D01*
X182489946Y-133920853D01*
X182462150Y-133962452D01*
X182453162Y-133914683D01*
X182314090Y-133698559D01*
X182101890Y-133553569D01*
X181850000Y-133502560D01*
X180150000Y-133502560D01*
X179914683Y-133546838D01*
X179698559Y-133685910D01*
X179553569Y-133898110D01*
X179502560Y-134150000D01*
X174735532Y-134150000D01*
X176338809Y-132546723D01*
X176495728Y-132515510D01*
X176915986Y-132234702D01*
X177196794Y-131814444D01*
X177295400Y-131318716D01*
X177295400Y-129921284D01*
X177196794Y-129425556D01*
X176915986Y-129005298D01*
X176753743Y-128896890D01*
X189558524Y-128896890D01*
X189728355Y-129306924D01*
X190118642Y-129735183D01*
X190643108Y-129981486D01*
X190873000Y-129860819D01*
X190873000Y-128667000D01*
X191127000Y-128667000D01*
X191127000Y-129860819D01*
X191356892Y-129981486D01*
X191881358Y-129735183D01*
X192271645Y-129306924D01*
X192441476Y-128896890D01*
X192320155Y-128667000D01*
X191127000Y-128667000D01*
X190873000Y-128667000D01*
X189679845Y-128667000D01*
X189558524Y-128896890D01*
X176753743Y-128896890D01*
X176495728Y-128724490D01*
X176000000Y-128625884D01*
X175504272Y-128724490D01*
X175084014Y-129005298D01*
X174803206Y-129425556D01*
X174730000Y-129793589D01*
X174656794Y-129425556D01*
X174375986Y-129005298D01*
X173955728Y-128724490D01*
X173460000Y-128625884D01*
X172964272Y-128724490D01*
X172544014Y-129005298D01*
X172263206Y-129425556D01*
X172190000Y-129793589D01*
X172116794Y-129425556D01*
X171835986Y-129005298D01*
X171415728Y-128724490D01*
X170920000Y-128625884D01*
X170424272Y-128724490D01*
X170004014Y-129005298D01*
X169723206Y-129425556D01*
X169655385Y-129766514D01*
X169528193Y-129346539D01*
X169206184Y-128953811D01*
X168758396Y-128714205D01*
X168707105Y-128706180D01*
X168507000Y-128830067D01*
X168507000Y-130493000D01*
X168527000Y-130493000D01*
X168527000Y-130747000D01*
X168507000Y-130747000D01*
X168507000Y-132409933D01*
X168707105Y-132533820D01*
X168758396Y-132525795D01*
X169206184Y-132286189D01*
X169528193Y-131893461D01*
X169655385Y-131473486D01*
X169723206Y-131814444D01*
X170004014Y-132234702D01*
X170424272Y-132515510D01*
X170920000Y-132614116D01*
X171415728Y-132515510D01*
X171835986Y-132234702D01*
X172116794Y-131814444D01*
X172190000Y-131446411D01*
X172263206Y-131814444D01*
X172544014Y-132234702D01*
X172964272Y-132515510D01*
X173127325Y-132547943D01*
X170260267Y-135415001D01*
X160002497Y-135415001D01*
X160084811Y-135216767D01*
X160085188Y-134785127D01*
X159920354Y-134386200D01*
X159885000Y-134350784D01*
X159885000Y-132262088D01*
X160264272Y-132515510D01*
X160760000Y-132614116D01*
X161255728Y-132515510D01*
X161675986Y-132234702D01*
X161956794Y-131814444D01*
X162030000Y-131446411D01*
X162103206Y-131814444D01*
X162384014Y-132234702D01*
X162804272Y-132515510D01*
X163300000Y-132614116D01*
X163795728Y-132515510D01*
X164215986Y-132234702D01*
X164496794Y-131814444D01*
X164564615Y-131473486D01*
X164691807Y-131893461D01*
X165013816Y-132286189D01*
X165461604Y-132525795D01*
X165512895Y-132533820D01*
X165713000Y-132409933D01*
X165713000Y-130747000D01*
X165967000Y-130747000D01*
X165967000Y-132409933D01*
X166167105Y-132533820D01*
X166218396Y-132525795D01*
X166666184Y-132286189D01*
X166988193Y-131893461D01*
X167110000Y-131491268D01*
X167231807Y-131893461D01*
X167553816Y-132286189D01*
X168001604Y-132525795D01*
X168052895Y-132533820D01*
X168253000Y-132409933D01*
X168253000Y-130747000D01*
X165967000Y-130747000D01*
X165713000Y-130747000D01*
X165693000Y-130747000D01*
X165693000Y-130493000D01*
X165713000Y-130493000D01*
X165713000Y-128830067D01*
X165967000Y-128830067D01*
X165967000Y-130493000D01*
X168253000Y-130493000D01*
X168253000Y-128830067D01*
X168052895Y-128706180D01*
X168001604Y-128714205D01*
X167553816Y-128953811D01*
X167231807Y-129346539D01*
X167110000Y-129748732D01*
X166988193Y-129346539D01*
X166666184Y-128953811D01*
X166218396Y-128714205D01*
X166167105Y-128706180D01*
X165967000Y-128830067D01*
X165713000Y-128830067D01*
X165512895Y-128706180D01*
X165461604Y-128714205D01*
X165013816Y-128953811D01*
X164691807Y-129346539D01*
X164564615Y-129766514D01*
X164496794Y-129425556D01*
X164215986Y-129005298D01*
X163795728Y-128724490D01*
X163300000Y-128625884D01*
X162804272Y-128724490D01*
X162384014Y-129005298D01*
X162103206Y-129425556D01*
X162030000Y-129793589D01*
X161956794Y-129425556D01*
X161675986Y-129005298D01*
X161255728Y-128724490D01*
X160760000Y-128625884D01*
X160264272Y-128724490D01*
X159844014Y-129005298D01*
X159563206Y-129425556D01*
X159490000Y-129793589D01*
X159416794Y-129425556D01*
X159135986Y-129005298D01*
X158715728Y-128724490D01*
X158220000Y-128625884D01*
X157724272Y-128724490D01*
X157304014Y-129005298D01*
X157023206Y-129425556D01*
X156924600Y-129921284D01*
X156924600Y-131318716D01*
X157023206Y-131814444D01*
X157304014Y-132234702D01*
X157724272Y-132515510D01*
X158115000Y-132593230D01*
X158115000Y-134350373D01*
X158080718Y-134384595D01*
X157915189Y-134783233D01*
X157915122Y-134859991D01*
X152252565Y-129197434D01*
X151965013Y-129005298D01*
X151884345Y-128951397D01*
X151449999Y-128865000D01*
X128823958Y-128865000D01*
X128785564Y-128826539D01*
X128276702Y-128615241D01*
X127725715Y-128614760D01*
X127216485Y-128825169D01*
X126826539Y-129214436D01*
X126615241Y-129723298D01*
X126614760Y-130274285D01*
X126825169Y-130783515D01*
X127214436Y-131173461D01*
X127723298Y-131384759D01*
X128274285Y-131385240D01*
X128783515Y-131174831D01*
X128823415Y-131135000D01*
X150979867Y-131135000D01*
X157134867Y-137290000D01*
X119710000Y-137290000D01*
X119710000Y-134000000D01*
X120290000Y-134000000D01*
X120496286Y-135037072D01*
X121083741Y-135916259D01*
X121962928Y-136503714D01*
X123000000Y-136710000D01*
X124037072Y-136503714D01*
X124916259Y-135916259D01*
X125503714Y-135037072D01*
X125680163Y-134150000D01*
X148502560Y-134150000D01*
X148502560Y-135850000D01*
X148546838Y-136085317D01*
X148685910Y-136301441D01*
X148898110Y-136446431D01*
X149150000Y-136497440D01*
X150850000Y-136497440D01*
X151085317Y-136453162D01*
X151301441Y-136314090D01*
X151446431Y-136101890D01*
X151460086Y-136034459D01*
X151489946Y-136079147D01*
X151971715Y-136401054D01*
X152540000Y-136514093D01*
X153108285Y-136401054D01*
X153590054Y-136079147D01*
X153911961Y-135597378D01*
X154025000Y-135029093D01*
X154025000Y-134970907D01*
X153911961Y-134402622D01*
X153590054Y-133920853D01*
X153108285Y-133598946D01*
X152540000Y-133485907D01*
X151971715Y-133598946D01*
X151489946Y-133920853D01*
X151462150Y-133962452D01*
X151453162Y-133914683D01*
X151314090Y-133698559D01*
X151101890Y-133553569D01*
X150850000Y-133502560D01*
X149150000Y-133502560D01*
X148914683Y-133546838D01*
X148698559Y-133685910D01*
X148553569Y-133898110D01*
X148502560Y-134150000D01*
X125680163Y-134150000D01*
X125710000Y-134000000D01*
X125503714Y-132962928D01*
X124916259Y-132083741D01*
X124037072Y-131496286D01*
X123000000Y-131290000D01*
X121962928Y-131496286D01*
X121083741Y-132083741D01*
X120496286Y-132962928D01*
X120290000Y-134000000D01*
X119710000Y-134000000D01*
X119710000Y-126214873D01*
X126914812Y-126214873D01*
X127079646Y-126613800D01*
X127384595Y-126919282D01*
X127783233Y-127084811D01*
X128214873Y-127085188D01*
X128613800Y-126920354D01*
X128919282Y-126615405D01*
X129084811Y-126216767D01*
X129084855Y-126166725D01*
X130366579Y-124885000D01*
X149499995Y-124885000D01*
X149500000Y-124885001D01*
X149782484Y-124828810D01*
X149838675Y-124817633D01*
X150125790Y-124625790D01*
X155545788Y-119205791D01*
X155545791Y-119205789D01*
X155551041Y-119200539D01*
X155770000Y-119244093D01*
X156338285Y-119131054D01*
X156820054Y-118809147D01*
X157040000Y-118479974D01*
X157259946Y-118809147D01*
X157741715Y-119131054D01*
X158310000Y-119244093D01*
X158878285Y-119131054D01*
X159360054Y-118809147D01*
X159580000Y-118479974D01*
X159799946Y-118809147D01*
X160281715Y-119131054D01*
X160850000Y-119244093D01*
X161418285Y-119131054D01*
X161900054Y-118809147D01*
X162120000Y-118479974D01*
X162339946Y-118809147D01*
X162821715Y-119131054D01*
X162920303Y-119150664D01*
X162817116Y-119171190D01*
X162760925Y-119182367D01*
X162473810Y-119374210D01*
X162473808Y-119374213D01*
X160828509Y-121019511D01*
X160760000Y-121005884D01*
X160264272Y-121104490D01*
X159844014Y-121385298D01*
X159563206Y-121805556D01*
X159490000Y-122173589D01*
X159416794Y-121805556D01*
X159135986Y-121385298D01*
X158715728Y-121104490D01*
X158220000Y-121005884D01*
X157724272Y-121104490D01*
X157304014Y-121385298D01*
X157023206Y-121805556D01*
X156924600Y-122301284D01*
X156924600Y-123698716D01*
X157023206Y-124194444D01*
X157304014Y-124614702D01*
X157724272Y-124895510D01*
X158220000Y-124994116D01*
X158715728Y-124895510D01*
X159135986Y-124614702D01*
X159416794Y-124194444D01*
X159490000Y-123826411D01*
X159563206Y-124194444D01*
X159844014Y-124614702D01*
X160264272Y-124895510D01*
X160760000Y-124994116D01*
X161255728Y-124895510D01*
X161675986Y-124614702D01*
X161956794Y-124194444D01*
X162030000Y-123826411D01*
X162103206Y-124194444D01*
X162384014Y-124614702D01*
X162804272Y-124895510D01*
X163300000Y-124994116D01*
X163795728Y-124895510D01*
X164215986Y-124614702D01*
X164496794Y-124194444D01*
X164564615Y-123853486D01*
X164691807Y-124273461D01*
X165013816Y-124666189D01*
X165461604Y-124905795D01*
X165512895Y-124913820D01*
X165713000Y-124789933D01*
X165713000Y-123127000D01*
X165967000Y-123127000D01*
X165967000Y-124789933D01*
X166167105Y-124913820D01*
X166218396Y-124905795D01*
X166666184Y-124666189D01*
X166988193Y-124273461D01*
X167110000Y-123871268D01*
X167231807Y-124273461D01*
X167553816Y-124666189D01*
X168001604Y-124905795D01*
X168052895Y-124913820D01*
X168253000Y-124789933D01*
X168253000Y-123127000D01*
X165967000Y-123127000D01*
X165713000Y-123127000D01*
X165693000Y-123127000D01*
X165693000Y-122873000D01*
X165713000Y-122873000D01*
X165713000Y-121210067D01*
X165967000Y-121210067D01*
X165967000Y-122873000D01*
X168253000Y-122873000D01*
X168253000Y-121210067D01*
X168052895Y-121086180D01*
X168001604Y-121094205D01*
X167553816Y-121333811D01*
X167231807Y-121726539D01*
X167110000Y-122128732D01*
X166988193Y-121726539D01*
X166666184Y-121333811D01*
X166218396Y-121094205D01*
X166167105Y-121086180D01*
X165967000Y-121210067D01*
X165713000Y-121210067D01*
X165512895Y-121086180D01*
X165461604Y-121094205D01*
X165013816Y-121333811D01*
X164691807Y-121726539D01*
X164564615Y-122146514D01*
X164496794Y-121805556D01*
X164215986Y-121385298D01*
X163795728Y-121104490D01*
X163337780Y-121013399D01*
X163466179Y-120885000D01*
X168739995Y-120885000D01*
X168740000Y-120885001D01*
X169022484Y-120828810D01*
X169078675Y-120817633D01*
X169365790Y-120625790D01*
X170791040Y-119200539D01*
X171010000Y-119244093D01*
X171578285Y-119131054D01*
X172060054Y-118809147D01*
X172280000Y-118479974D01*
X172499946Y-118809147D01*
X172981715Y-119131054D01*
X173550000Y-119244093D01*
X174118285Y-119131054D01*
X174600054Y-118809147D01*
X174820000Y-118479974D01*
X175039946Y-118809147D01*
X175521715Y-119131054D01*
X176090000Y-119244093D01*
X176658285Y-119131054D01*
X177140054Y-118809147D01*
X177360000Y-118479974D01*
X177495000Y-118682016D01*
X177495000Y-123899868D01*
X177189484Y-124205384D01*
X177196794Y-124194444D01*
X177295400Y-123698716D01*
X177295400Y-122301284D01*
X177196794Y-121805556D01*
X176915986Y-121385298D01*
X176495728Y-121104490D01*
X176000000Y-121005884D01*
X175504272Y-121104490D01*
X175084014Y-121385298D01*
X174803206Y-121805556D01*
X174730000Y-122173589D01*
X174656794Y-121805556D01*
X174375986Y-121385298D01*
X173955728Y-121104490D01*
X173460000Y-121005884D01*
X172964272Y-121104490D01*
X172544014Y-121385298D01*
X172263206Y-121805556D01*
X172190000Y-122173589D01*
X172116794Y-121805556D01*
X171835986Y-121385298D01*
X171415728Y-121104490D01*
X170920000Y-121005884D01*
X170424272Y-121104490D01*
X170004014Y-121385298D01*
X169723206Y-121805556D01*
X169655385Y-122146514D01*
X169528193Y-121726539D01*
X169206184Y-121333811D01*
X168758396Y-121094205D01*
X168707105Y-121086180D01*
X168507000Y-121210067D01*
X168507000Y-122873000D01*
X168527000Y-122873000D01*
X168527000Y-123127000D01*
X168507000Y-123127000D01*
X168507000Y-124789933D01*
X168707105Y-124913820D01*
X168758396Y-124905795D01*
X169206184Y-124666189D01*
X169528193Y-124273461D01*
X169655385Y-123853486D01*
X169723206Y-124194444D01*
X170004014Y-124614702D01*
X170424272Y-124895510D01*
X170920000Y-124994116D01*
X171415728Y-124895510D01*
X171835986Y-124614702D01*
X172116794Y-124194444D01*
X172190000Y-123826411D01*
X172263206Y-124194444D01*
X172544014Y-124614702D01*
X172964272Y-124895510D01*
X173460000Y-124994116D01*
X173955728Y-124895510D01*
X174375986Y-124614702D01*
X174656794Y-124194444D01*
X174730000Y-123826411D01*
X174803206Y-124194444D01*
X175084014Y-124614702D01*
X175504272Y-124895510D01*
X176000000Y-124994116D01*
X176495728Y-124895510D01*
X176506668Y-124888200D01*
X175529868Y-125865000D01*
X166823958Y-125865000D01*
X166785564Y-125826539D01*
X166276702Y-125615241D01*
X165725715Y-125614760D01*
X165216485Y-125825169D01*
X164826539Y-126214436D01*
X164615241Y-126723298D01*
X164614760Y-127274285D01*
X164825169Y-127783515D01*
X165214436Y-128173461D01*
X165723298Y-128384759D01*
X166274285Y-128385240D01*
X166783515Y-128174831D01*
X166823415Y-128135000D01*
X176000000Y-128135000D01*
X176434346Y-128048603D01*
X176802566Y-127802566D01*
X179432566Y-125172566D01*
X179447644Y-125150000D01*
X189502560Y-125150000D01*
X189502560Y-126850000D01*
X189546838Y-127085317D01*
X189685910Y-127301441D01*
X189898110Y-127446431D01*
X190006107Y-127468301D01*
X189728355Y-127773076D01*
X189558524Y-128183110D01*
X189679845Y-128413000D01*
X190873000Y-128413000D01*
X190873000Y-128393000D01*
X191127000Y-128393000D01*
X191127000Y-128413000D01*
X192320155Y-128413000D01*
X192441476Y-128183110D01*
X192271645Y-127773076D01*
X191995499Y-127470063D01*
X192085317Y-127453162D01*
X192301441Y-127314090D01*
X192446431Y-127101890D01*
X192497440Y-126850000D01*
X192497440Y-125150000D01*
X192453162Y-124914683D01*
X192314090Y-124698559D01*
X192101890Y-124553569D01*
X191850000Y-124502560D01*
X190150000Y-124502560D01*
X189914683Y-124546838D01*
X189698559Y-124685910D01*
X189553569Y-124898110D01*
X189502560Y-125150000D01*
X179447644Y-125150000D01*
X179678604Y-124804345D01*
X179765000Y-124370000D01*
X179765000Y-118682016D01*
X179907702Y-118468447D01*
X179974817Y-118611358D01*
X180403076Y-119001645D01*
X180813110Y-119171476D01*
X181043000Y-119050155D01*
X181043000Y-117857000D01*
X181297000Y-117857000D01*
X181297000Y-119050155D01*
X181526890Y-119171476D01*
X181936924Y-119001645D01*
X182365183Y-118611358D01*
X182611486Y-118086892D01*
X182490819Y-117857000D01*
X181297000Y-117857000D01*
X181043000Y-117857000D01*
X181023000Y-117857000D01*
X181023000Y-117603000D01*
X181043000Y-117603000D01*
X181043000Y-116409845D01*
X181297000Y-116409845D01*
X181297000Y-117603000D01*
X182490819Y-117603000D01*
X182611486Y-117373108D01*
X182365183Y-116848642D01*
X181936924Y-116458355D01*
X181526890Y-116288524D01*
X181297000Y-116409845D01*
X181043000Y-116409845D01*
X180813110Y-116288524D01*
X180403076Y-116458355D01*
X179974817Y-116848642D01*
X179907702Y-116991553D01*
X179680054Y-116650853D01*
X179198285Y-116328946D01*
X178630000Y-116215907D01*
X178061715Y-116328946D01*
X177579946Y-116650853D01*
X177360000Y-116980026D01*
X177140054Y-116650853D01*
X176658285Y-116328946D01*
X176090000Y-116215907D01*
X175521715Y-116328946D01*
X175039946Y-116650853D01*
X174820000Y-116980026D01*
X174600054Y-116650853D01*
X174118285Y-116328946D01*
X173550000Y-116215907D01*
X172981715Y-116328946D01*
X172499946Y-116650853D01*
X172280000Y-116980026D01*
X172060054Y-116650853D01*
X171578285Y-116328946D01*
X171010000Y-116215907D01*
X170441715Y-116328946D01*
X169959946Y-116650853D01*
X169740000Y-116980026D01*
X169520054Y-116650853D01*
X169038285Y-116328946D01*
X168470000Y-116215907D01*
X167901715Y-116328946D01*
X167419946Y-116650853D01*
X167200000Y-116980026D01*
X166980054Y-116650853D01*
X166498285Y-116328946D01*
X165930000Y-116215907D01*
X165361715Y-116328946D01*
X164879946Y-116650853D01*
X164660000Y-116980026D01*
X164440054Y-116650853D01*
X163958285Y-116328946D01*
X163390000Y-116215907D01*
X162821715Y-116328946D01*
X162339946Y-116650853D01*
X162120000Y-116980026D01*
X161900054Y-116650853D01*
X161418285Y-116328946D01*
X160850000Y-116215907D01*
X160281715Y-116328946D01*
X159799946Y-116650853D01*
X159580000Y-116980026D01*
X159360054Y-116650853D01*
X158878285Y-116328946D01*
X158310000Y-116215907D01*
X157741715Y-116328946D01*
X157259946Y-116650853D01*
X157040000Y-116980026D01*
X156820054Y-116650853D01*
X156338285Y-116328946D01*
X155770000Y-116215907D01*
X155201715Y-116328946D01*
X154719946Y-116650853D01*
X154500000Y-116980026D01*
X154280054Y-116650853D01*
X153798285Y-116328946D01*
X153230000Y-116215907D01*
X152661715Y-116328946D01*
X152179946Y-116650853D01*
X151960000Y-116980026D01*
X151740054Y-116650853D01*
X151258285Y-116328946D01*
X150690000Y-116215907D01*
X150121715Y-116328946D01*
X149639946Y-116650853D01*
X149420000Y-116980026D01*
X149200054Y-116650853D01*
X148718285Y-116328946D01*
X148150000Y-116215907D01*
X147581715Y-116328946D01*
X147099946Y-116650853D01*
X146880000Y-116980026D01*
X146660054Y-116650853D01*
X146178285Y-116328946D01*
X145610000Y-116215907D01*
X145041715Y-116328946D01*
X144559946Y-116650853D01*
X144532150Y-116692452D01*
X144523162Y-116644683D01*
X144384090Y-116428559D01*
X144171890Y-116283569D01*
X143920000Y-116232560D01*
X142220000Y-116232560D01*
X141984683Y-116276838D01*
X141768559Y-116415910D01*
X141623569Y-116628110D01*
X141572560Y-116880000D01*
X141572560Y-118580000D01*
X141616838Y-118815317D01*
X141755910Y-119031441D01*
X141968110Y-119176431D01*
X142220000Y-119227440D01*
X143920000Y-119227440D01*
X144155317Y-119183162D01*
X144371441Y-119044090D01*
X144516431Y-118831890D01*
X144530086Y-118764459D01*
X144559946Y-118809147D01*
X145041715Y-119131054D01*
X145610000Y-119244093D01*
X146178285Y-119131054D01*
X146660054Y-118809147D01*
X146880000Y-118479974D01*
X147099946Y-118809147D01*
X147581715Y-119131054D01*
X148150000Y-119244093D01*
X148718285Y-119131054D01*
X149200054Y-118809147D01*
X149420000Y-118479974D01*
X149639946Y-118809147D01*
X150121715Y-119131054D01*
X150690000Y-119244093D01*
X151258285Y-119131054D01*
X151740054Y-118809147D01*
X151960000Y-118479974D01*
X152179946Y-118809147D01*
X152661715Y-119131054D01*
X153041769Y-119206652D01*
X149133420Y-123115000D01*
X130000005Y-123115000D01*
X130000000Y-123114999D01*
X129661325Y-123182367D01*
X129374210Y-123374210D01*
X129374208Y-123374213D01*
X127833566Y-124914854D01*
X127785127Y-124914812D01*
X127386200Y-125079646D01*
X127080718Y-125384595D01*
X126915189Y-125783233D01*
X126914812Y-126214873D01*
X119710000Y-126214873D01*
X119710000Y-99385461D01*
X120004092Y-99385461D01*
X120028144Y-100035460D01*
X120230613Y-100524264D01*
X120497468Y-100622927D01*
X121470395Y-99650000D01*
X121829605Y-99650000D01*
X122802532Y-100622927D01*
X123069387Y-100524264D01*
X123295908Y-99914539D01*
X123271856Y-99264540D01*
X123069387Y-98775736D01*
X122802532Y-98677073D01*
X121829605Y-99650000D01*
X121470395Y-99650000D01*
X120497468Y-98677073D01*
X120230613Y-98775736D01*
X120004092Y-99385461D01*
X119710000Y-99385461D01*
X119710000Y-97433795D01*
X120014716Y-97433795D01*
X120263106Y-98034943D01*
X120689978Y-98462562D01*
X120677073Y-98497468D01*
X121650000Y-99470395D01*
X122622927Y-98497468D01*
X122609836Y-98462062D01*
X123035278Y-98037363D01*
X123284716Y-97436648D01*
X123285284Y-96786205D01*
X123036894Y-96185057D01*
X122577363Y-95724722D01*
X121976648Y-95475284D01*
X121326205Y-95474716D01*
X120725057Y-95723106D01*
X120264722Y-96182637D01*
X120015284Y-96783352D01*
X120014716Y-97433795D01*
X119710000Y-97433795D01*
X119710000Y-95176892D01*
X141678514Y-95176892D01*
X141924817Y-95701358D01*
X142353076Y-96091645D01*
X142763110Y-96261476D01*
X142993000Y-96140155D01*
X142993000Y-94947000D01*
X141799181Y-94947000D01*
X141678514Y-95176892D01*
X119710000Y-95176892D01*
X119710000Y-94463108D01*
X141678514Y-94463108D01*
X141799181Y-94693000D01*
X142993000Y-94693000D01*
X142993000Y-93499845D01*
X142763110Y-93378524D01*
X142353076Y-93548355D01*
X141924817Y-93938642D01*
X141678514Y-94463108D01*
X119710000Y-94463108D01*
X119710000Y-78000000D01*
X120290000Y-78000000D01*
X120496286Y-79037072D01*
X121083741Y-79916259D01*
X121962928Y-80503714D01*
X123000000Y-80710000D01*
X124037072Y-80503714D01*
X124916259Y-79916259D01*
X125503714Y-79037072D01*
X125710000Y-78000000D01*
X125503714Y-76962928D01*
X124916259Y-76083741D01*
X124037072Y-75496286D01*
X123000000Y-75290000D01*
X121962928Y-75496286D01*
X121083741Y-76083741D01*
X120496286Y-76962928D01*
X120290000Y-78000000D01*
X119710000Y-78000000D01*
X119710000Y-74710000D01*
X193290000Y-74710000D01*
X193290000Y-87495216D01*
M02*
