G04 #@! TF.FileFunction,Copper,L1,Top,Signal*
%FSLAX46Y46*%
G04 Gerber Fmt 4.6, Leading zero omitted, Abs format (unit mm)*
G04 Created by KiCad (PCBNEW 4.0.7) date 05/24/18 23:07:09*
%MOMM*%
%LPD*%
G01*
G04 APERTURE LIST*
%ADD10C,0.100000*%
%ADD11O,1.320800X2.641600*%
%ADD12R,1.700000X1.700000*%
%ADD13O,1.700000X1.700000*%
%ADD14R,2.000000X1.600000*%
%ADD15R,1.500000X1.300000*%
%ADD16R,2.000000X1.700000*%
%ADD17R,2.750000X1.000000*%
%ADD18C,2.000000*%
%ADD19C,1.500000*%
%ADD20C,0.900000*%
%ADD21C,0.500000*%
%ADD22C,1.000000*%
G04 APERTURE END LIST*
D10*
D11*
X158110000Y-89000000D03*
X160650000Y-89000000D03*
X173350000Y-89000000D03*
X175890000Y-89000000D03*
X163190000Y-89000000D03*
X165730000Y-89000000D03*
X170810000Y-89000000D03*
X168270000Y-89000000D03*
X175890000Y-81380000D03*
X173350000Y-81380000D03*
X170810000Y-81380000D03*
X168270000Y-81380000D03*
X165730000Y-81380000D03*
X163190000Y-81380000D03*
X160650000Y-81380000D03*
X158110000Y-81380000D03*
D12*
X191380000Y-94820000D03*
D13*
X188840000Y-94820000D03*
X186300000Y-94820000D03*
X183760000Y-94820000D03*
X181220000Y-94820000D03*
X178680000Y-94820000D03*
X176140000Y-94820000D03*
X173600000Y-94820000D03*
X171060000Y-94820000D03*
X168520000Y-94820000D03*
X165980000Y-94820000D03*
X163440000Y-94820000D03*
X160900000Y-94820000D03*
X158360000Y-94820000D03*
X155820000Y-94820000D03*
X153280000Y-94820000D03*
X150740000Y-94820000D03*
X148200000Y-94820000D03*
X145660000Y-94820000D03*
X143120000Y-94820000D03*
D14*
X192000000Y-122000000D03*
X188000000Y-122000000D03*
X192000000Y-90000000D03*
X188000000Y-90000000D03*
D15*
X123650000Y-130000000D03*
X126350000Y-130000000D03*
X123650000Y-126000000D03*
X126350000Y-126000000D03*
D12*
X191000000Y-126000000D03*
D13*
X191000000Y-128540000D03*
D12*
X150000000Y-135000000D03*
D13*
X152540000Y-135000000D03*
D12*
X150460000Y-77000000D03*
D13*
X153000000Y-77000000D03*
D12*
X181000000Y-135000000D03*
D13*
X183540000Y-135000000D03*
D12*
X143070000Y-117730000D03*
D13*
X145610000Y-117730000D03*
X148150000Y-117730000D03*
X150690000Y-117730000D03*
X153230000Y-117730000D03*
X155770000Y-117730000D03*
X158310000Y-117730000D03*
X160850000Y-117730000D03*
X163390000Y-117730000D03*
X165930000Y-117730000D03*
X168470000Y-117730000D03*
X171010000Y-117730000D03*
X173550000Y-117730000D03*
X176090000Y-117730000D03*
X178630000Y-117730000D03*
X181170000Y-117730000D03*
D12*
X181000000Y-77000000D03*
D13*
X183540000Y-77000000D03*
D12*
X128920000Y-77000000D03*
D13*
X131460000Y-77000000D03*
X134000000Y-77000000D03*
D12*
X139000000Y-77000000D03*
D13*
X141540000Y-77000000D03*
X144080000Y-77000000D03*
D16*
X145000000Y-132000000D03*
X141000000Y-132000000D03*
X165000000Y-135000000D03*
X161000000Y-135000000D03*
X150000000Y-90000000D03*
X154000000Y-90000000D03*
X183650000Y-122950000D03*
X179650000Y-122950000D03*
X141000000Y-122000000D03*
X145000000Y-122000000D03*
X141000000Y-127000000D03*
X145000000Y-127000000D03*
X184800000Y-90000000D03*
X180800000Y-90000000D03*
D17*
X122240000Y-122000000D03*
X128000000Y-122000000D03*
X128000000Y-118000000D03*
X122240000Y-118000000D03*
D11*
X158220000Y-130620000D03*
X160760000Y-130620000D03*
X173460000Y-130620000D03*
X176000000Y-130620000D03*
X163300000Y-130620000D03*
X165840000Y-130620000D03*
X170920000Y-130620000D03*
X168380000Y-130620000D03*
X176000000Y-123000000D03*
X173460000Y-123000000D03*
X170920000Y-123000000D03*
X168380000Y-123000000D03*
X165840000Y-123000000D03*
X163300000Y-123000000D03*
X160760000Y-123000000D03*
X158220000Y-123000000D03*
D18*
X121650000Y-97110000D03*
X121650000Y-99650000D03*
X121650000Y-102190000D03*
X121650000Y-104730000D03*
X121650000Y-107270000D03*
X121650000Y-109810000D03*
X121650000Y-112350000D03*
X121650000Y-114890000D03*
D19*
X128000000Y-130000000D03*
X192000000Y-120000000D03*
D20*
X128000000Y-126000000D03*
D19*
X188000000Y-120000000D03*
X147000000Y-122000000D03*
X150000000Y-88000000D03*
X166000000Y-127000000D03*
X192000000Y-88000000D03*
D20*
X159000000Y-135000000D03*
X162699333Y-90875470D03*
X177000006Y-84000000D03*
X171999998Y-84000000D03*
X176000000Y-85999992D03*
X173000000Y-86000000D03*
X173550000Y-91950000D03*
D21*
X141000000Y-130650000D02*
X138350000Y-128000000D01*
X123650000Y-130000000D02*
X123750000Y-130000000D01*
X125750000Y-128000000D02*
X138350000Y-128000000D01*
X123750000Y-130000000D02*
X125750000Y-128000000D01*
X141000000Y-132000000D02*
X141000000Y-130650000D01*
D22*
X126350000Y-130000000D02*
X128000000Y-130000000D01*
X192000000Y-120000000D02*
X192000000Y-122000000D01*
X191000000Y-126000000D02*
X191000000Y-123000000D01*
X191000000Y-123000000D02*
X192000000Y-122000000D01*
X191000000Y-126000000D02*
X179959600Y-126000000D01*
X176000000Y-129959600D02*
X176000000Y-130620000D01*
X179959600Y-126000000D02*
X176000000Y-129959600D01*
D21*
X139350000Y-124000000D02*
X125750000Y-124000000D01*
X125750000Y-124000000D02*
X123750000Y-126000000D01*
X123750000Y-126000000D02*
X123650000Y-126000000D01*
X141000000Y-127000000D02*
X141000000Y-125650000D01*
X141000000Y-125650000D02*
X139350000Y-124000000D01*
X126350000Y-126000000D02*
X128000000Y-126000000D01*
X155770000Y-117730000D02*
X155770000Y-118230000D01*
X156000000Y-117960000D02*
X155770000Y-117730000D01*
D22*
X188000000Y-90000000D02*
X184800000Y-90000000D01*
X188000000Y-122000000D02*
X188000000Y-120000000D01*
X147000000Y-122000000D02*
X145000000Y-122000000D01*
X183650000Y-122950000D02*
X187050000Y-122950000D01*
X187050000Y-122950000D02*
X188000000Y-122000000D01*
X188000000Y-90000000D02*
X188000000Y-93120000D01*
X188000000Y-93120000D02*
X186300000Y-94820000D01*
X169000000Y-135000000D02*
X169000000Y-131240000D01*
X169000000Y-131240000D02*
X168380000Y-130620000D01*
X165000000Y-135000000D02*
X169000000Y-135000000D01*
X150000000Y-90000000D02*
X150000000Y-88000000D01*
X145000000Y-132000000D02*
X145000000Y-127000000D01*
X145000000Y-122000000D02*
X145000000Y-127000000D01*
X168270000Y-81380000D02*
X168270000Y-80730000D01*
X192880001Y-103479999D02*
X192930001Y-96000000D01*
X192000000Y-92479998D02*
X192930001Y-93409999D01*
X192000000Y-90000000D02*
X192000000Y-92479998D01*
X192930001Y-93409999D02*
X192930001Y-96000000D01*
X178630000Y-117730000D02*
X192880001Y-103479999D01*
X158220000Y-123000000D02*
X158220000Y-123660400D01*
X158220000Y-123660400D02*
X161559600Y-127000000D01*
X161559600Y-127000000D02*
X166000000Y-127000000D01*
X192000000Y-88000000D02*
X192000000Y-90000000D01*
D21*
X170920000Y-123000000D02*
X170920000Y-124240796D01*
X170920000Y-124240796D02*
X174889590Y-128210383D01*
X174889590Y-128210383D02*
X174889590Y-131740346D01*
X174889590Y-131740346D02*
X178149244Y-135000000D01*
X178149244Y-135000000D02*
X179650000Y-135000000D01*
X179650000Y-135000000D02*
X181000000Y-135000000D01*
X163300000Y-123660400D02*
X164639600Y-125000000D01*
X167530756Y-125000000D02*
X164639600Y-125000000D01*
X172030410Y-129499654D02*
X167530756Y-125000000D01*
X163300000Y-123000000D02*
X163300000Y-123660400D01*
X183540000Y-135000000D02*
X182239999Y-136300001D01*
X182239999Y-136300001D02*
X176909245Y-136300001D01*
X176909245Y-136300001D02*
X172030410Y-131421166D01*
X172030410Y-131421166D02*
X172030410Y-129499654D01*
X171970400Y-79559200D02*
X170810000Y-80719600D01*
X172549174Y-79559200D02*
X171970400Y-79559200D01*
X172589987Y-79600013D02*
X172549174Y-79559200D01*
X170810000Y-80719600D02*
X170810000Y-81380000D01*
X177049987Y-79600013D02*
X172589987Y-79600013D01*
X181000000Y-77000000D02*
X179650000Y-77000000D01*
X179650000Y-77000000D02*
X177049987Y-79600013D01*
X170810000Y-81380000D02*
X171119244Y-81380000D01*
X163390000Y-117730000D02*
X162089999Y-119030001D01*
X162089999Y-119030001D02*
X157969999Y-119030001D01*
X157969999Y-119030001D02*
X156000000Y-121000000D01*
X158220000Y-128799200D02*
X158220000Y-130620000D01*
X156000000Y-121000000D02*
X156000000Y-126579200D01*
X156000000Y-126579200D02*
X158220000Y-128799200D01*
X158220000Y-130620000D02*
X158220000Y-129959600D01*
X161000000Y-135000000D02*
X159000000Y-135000000D01*
X164862081Y-120000000D02*
X163000000Y-120000000D01*
X160760000Y-130620000D02*
X160760000Y-129959600D01*
X160760000Y-129959600D02*
X157109590Y-126309190D01*
X157109590Y-121879654D02*
X158989244Y-120000000D01*
X157109590Y-126309190D02*
X157109590Y-121879654D01*
X158989244Y-120000000D02*
X163000000Y-120000000D01*
X165930000Y-117730000D02*
X165930000Y-118932081D01*
X165930000Y-118932081D02*
X164862081Y-120000000D01*
X169809590Y-121522412D02*
X169900001Y-121432001D01*
X169319999Y-118579999D02*
X168470000Y-117730000D01*
X173460000Y-130620000D02*
X173460000Y-127770756D01*
X173460000Y-127770756D02*
X169809590Y-124120346D01*
X169809590Y-124120346D02*
X169809590Y-121522412D01*
X169900001Y-121432001D02*
X169900001Y-119160001D01*
X169900001Y-119160001D02*
X169319999Y-118579999D01*
X171000000Y-117740000D02*
X171010000Y-117730000D01*
X173550000Y-117730000D02*
X173550000Y-122910000D01*
X173550000Y-122910000D02*
X173460000Y-123000000D01*
X176000000Y-123000000D02*
X179600000Y-123000000D01*
X179600000Y-123000000D02*
X179650000Y-122950000D01*
X176000000Y-123000000D02*
X176000000Y-117820000D01*
X176000000Y-117820000D02*
X176090000Y-117730000D01*
X131460000Y-77000000D02*
X131460000Y-86073965D01*
X131460000Y-86073965D02*
X142206046Y-96820011D01*
X142206046Y-96820011D02*
X186839989Y-96820011D01*
X186839989Y-96820011D02*
X187990001Y-95669999D01*
X187990001Y-95669999D02*
X188840000Y-94820000D01*
X141540000Y-77000000D02*
X141540000Y-95164002D01*
X182910001Y-95669999D02*
X183760000Y-94820000D01*
X141540000Y-95164002D02*
X142495999Y-96120001D01*
X142495999Y-96120001D02*
X182459999Y-96120001D01*
X182459999Y-96120001D02*
X182910001Y-95669999D01*
X160650000Y-89000000D02*
X160823863Y-89000000D01*
X160823863Y-89000000D02*
X162699333Y-90875470D01*
X158110000Y-89000000D02*
X158110000Y-89660400D01*
X158110000Y-89660400D02*
X163269600Y-94820000D01*
X163269600Y-94820000D02*
X163440000Y-94820000D01*
X154000000Y-90000000D02*
X157110000Y-90000000D01*
X157110000Y-90000000D02*
X158110000Y-89000000D01*
X178000002Y-84999996D02*
X177450005Y-84449999D01*
X176140000Y-94820000D02*
X178000002Y-92959998D01*
X178000002Y-92959998D02*
X178000002Y-84999996D01*
X177450005Y-84449999D02*
X177000006Y-84000000D01*
X171363602Y-84000000D02*
X171999998Y-84000000D01*
X162609600Y-84000000D02*
X171363602Y-84000000D01*
X160650000Y-82040400D02*
X162609600Y-84000000D01*
X160650000Y-81380000D02*
X160650000Y-82040400D01*
X163270000Y-84000000D02*
X171999998Y-84000000D01*
X170290000Y-93050000D02*
X174070756Y-93050000D01*
X174070756Y-93050000D02*
X177000410Y-90120346D01*
X168520000Y-94820000D02*
X170290000Y-93050000D01*
X173350000Y-84682010D02*
X173350000Y-83200800D01*
X175567999Y-86900009D02*
X173350000Y-84682010D01*
X177000410Y-90120346D02*
X177000410Y-87468422D01*
X177000410Y-87468422D02*
X176431997Y-86900009D01*
X176431997Y-86900009D02*
X175567999Y-86900009D01*
X173350000Y-83200800D02*
X173350000Y-81380000D01*
X173350000Y-81380000D02*
X173350000Y-81650000D01*
X173000000Y-86000000D02*
X172239590Y-86760410D01*
X172239590Y-86760410D02*
X172239590Y-89801166D01*
X172239590Y-89801166D02*
X170519946Y-91520810D01*
X170519946Y-91520810D02*
X169279190Y-91520810D01*
X180800000Y-90000000D02*
X180800000Y-82650000D01*
X180800000Y-82650000D02*
X179530000Y-81380000D01*
X175890000Y-81380000D02*
X179530000Y-81380000D01*
X176000000Y-85999992D02*
X176000000Y-81490000D01*
X176000000Y-81490000D02*
X175890000Y-81380000D01*
X165980000Y-94820000D02*
X169279190Y-91520810D01*
X175890000Y-82040400D02*
X175890000Y-81380000D01*
X173350000Y-89000000D02*
X173350000Y-91750000D01*
X173350000Y-91750000D02*
X173550000Y-91950000D01*
X150460000Y-78350000D02*
X158000000Y-85890000D01*
X163190000Y-89000000D02*
X163190000Y-88339600D01*
X163190000Y-88339600D02*
X160740400Y-85890000D01*
X160740400Y-85890000D02*
X158000000Y-85890000D01*
X150460000Y-77000000D02*
X150460000Y-78350000D01*
X153000000Y-78500756D02*
X159499244Y-85000000D01*
X170810000Y-89000000D02*
X170810000Y-88339600D01*
X170810000Y-88339600D02*
X167470400Y-85000000D01*
X167470400Y-85000000D02*
X159499244Y-85000000D01*
X153000000Y-77000000D02*
X153000000Y-78500756D01*
X163300000Y-130620000D02*
X163300000Y-131280400D01*
X163300000Y-131280400D02*
X161580411Y-132999989D01*
X150615998Y-135000000D02*
X150000000Y-135000000D01*
X161580411Y-132999989D02*
X152616009Y-132999989D01*
X152616009Y-132999989D02*
X150615998Y-135000000D01*
X153840001Y-133699999D02*
X166000000Y-133699999D01*
X169809590Y-128849190D02*
X167920054Y-128849190D01*
X170920000Y-130620000D02*
X170920000Y-129959600D01*
X170920000Y-129959600D02*
X169809590Y-128849190D01*
X167920054Y-128849190D02*
X166950410Y-129818834D01*
X166950410Y-129818834D02*
X166950410Y-132749589D01*
X166950410Y-132749589D02*
X166000000Y-133699999D01*
X152540000Y-135000000D02*
X153840001Y-133699999D01*
X172000000Y-78859190D02*
X175391190Y-78859190D01*
X163190000Y-81380000D02*
X163190000Y-80719600D01*
X163190000Y-80719600D02*
X165050410Y-78859190D01*
X165050410Y-78859190D02*
X172000000Y-78859190D01*
X163190000Y-81380000D02*
X163190000Y-82040400D01*
X178632005Y-75699999D02*
X182239999Y-75699999D01*
X175432002Y-78900002D02*
X178632005Y-75699999D01*
X175391190Y-78859190D02*
X175432002Y-78900002D01*
X182239999Y-75699999D02*
X183540000Y-77000000D01*
X128000000Y-122000000D02*
X141000000Y-122000000D01*
X122240000Y-122000000D02*
X128000000Y-122000000D01*
X153230000Y-117730000D02*
X151460011Y-119499989D01*
X151460011Y-119499989D02*
X145000011Y-119499989D01*
X145000011Y-119499989D02*
X142500000Y-122000000D01*
X142500000Y-122000000D02*
X141000000Y-122000000D01*
D22*
X128000000Y-118000000D02*
X142800000Y-118000000D01*
X142800000Y-118000000D02*
X143070000Y-117730000D01*
X122240000Y-118000000D02*
X128000000Y-118000000D01*
X121650000Y-97110000D02*
X119865000Y-98895000D01*
X119865000Y-98895000D02*
X119865000Y-116500000D01*
X119865000Y-116500000D02*
X121365000Y-118000000D01*
X121365000Y-118000000D02*
X122240000Y-118000000D01*
M02*
