M48
;DRILL file {KiCad 4.0.7} date 05/24/18 23:06:56
;FORMAT={-:-/ absolute / metric / decimal}
FMAT,2
METRIC,TZ
T1C0.600
T2C0.700
T3C0.813
T4C0.900
T5C1.000
%
G90
G05
M71
T1
X121.65Y-97.11
X121.65Y-99.65
X121.65Y-102.19
X121.65Y-104.73
X121.65Y-107.27
X121.65Y-109.81
X121.65Y-112.35
X121.65Y-114.89
T2
X128.Y-126.
X159.Y-135.
X162.699Y-90.875
X172.Y-84.
X173.Y-86.
X173.55Y-91.95
X176.Y-86.
X177.Y-84.
T3
X158.11Y-81.38
X158.11Y-89.
X158.22Y-123.
X158.22Y-130.62
X160.65Y-81.38
X160.65Y-89.
X160.76Y-123.
X160.76Y-130.62
X163.19Y-81.38
X163.19Y-89.
X163.3Y-123.
X163.3Y-130.62
X165.73Y-81.38
X165.73Y-89.
X165.84Y-123.
X165.84Y-130.62
X168.27Y-81.38
X168.27Y-89.
X168.38Y-123.
X168.38Y-130.62
X170.81Y-81.38
X170.81Y-89.
X170.92Y-123.
X170.92Y-130.62
X173.35Y-81.38
X173.35Y-89.
X173.46Y-123.
X173.46Y-130.62
X175.89Y-81.38
X175.89Y-89.
X176.Y-123.
X176.Y-130.62
T4
X128.Y-130.
X147.Y-122.
X150.Y-88.
X166.Y-127.
X188.Y-120.
X192.Y-88.
X192.Y-120.
T5
X128.92Y-77.
X131.46Y-77.
X134.Y-77.
X139.Y-77.
X141.54Y-77.
X143.07Y-117.73
X143.12Y-94.82
X144.08Y-77.
X145.61Y-117.73
X145.66Y-94.82
X148.15Y-117.73
X148.2Y-94.82
X150.Y-135.
X150.46Y-77.
X150.69Y-117.73
X150.74Y-94.82
X152.54Y-135.
X153.Y-77.
X153.23Y-117.73
X153.28Y-94.82
X155.77Y-117.73
X155.82Y-94.82
X158.31Y-117.73
X158.36Y-94.82
X160.85Y-117.73
X160.9Y-94.82
X163.39Y-117.73
X163.44Y-94.82
X165.93Y-117.73
X165.98Y-94.82
X168.47Y-117.73
X168.52Y-94.82
X171.01Y-117.73
X171.06Y-94.82
X173.55Y-117.73
X173.6Y-94.82
X176.09Y-117.73
X176.14Y-94.82
X178.63Y-117.73
X178.68Y-94.82
X181.Y-77.
X181.Y-135.
X181.17Y-117.73
X181.22Y-94.82
X183.54Y-77.
X183.54Y-135.
X183.76Y-94.82
X186.3Y-94.82
X188.84Y-94.82
X191.Y-126.
X191.Y-128.54
X191.38Y-94.82
T0
M30
