<?xml version="1.0" encoding="UTF-8" standalone="no"?>
<!DOCTYPE svg PUBLIC "-//W3C//DTD SVG 1.1//EN" "http://www.w3.org/Graphics/SVG/1.1/DTD/svg11.dtd">
<!-- Generated by Microsoft Visio, SVG Export I2C timing1.svg Page-1 -->
<svg xmlns="http://www.w3.org/2000/svg" xmlns:xlink="http://www.w3.org/1999/xlink" xmlns:ev="http://www.w3.org/2001/xml-events"
		xmlns:v="http://schemas.microsoft.com/visio/2003/SVGExtensions/" width="7.76215in" height="1.47869in"
		viewBox="0 0 558.875 106.466" xml:space="preserve" color-interpolation-filters="sRGB" class="st12">
	<v:documentProperties v:langID="1033" v:viewMarkup="false"/>

	<style type="text/css">
	<![CDATA[
		.st1 {fill:#ffffaa;stroke:none;stroke-linecap:round;stroke-linejoin:round;stroke-width:0.24}
		.st2 {fill:#ffc6c6;stroke:none;stroke-linecap:round;stroke-linejoin:round;stroke-width:0.24}
		.st3 {fill:#ebf1df;stroke:none;stroke-linecap:round;stroke-linejoin:round;stroke-width:0.24}
		.st4 {fill:#fff2cc;stroke:none;stroke-linecap:round;stroke-linejoin:round;stroke-width:0.24}
		.st5 {fill:#dbeef3;stroke:none;stroke-linecap:round;stroke-linejoin:round;stroke-width:0.24}
		.st6 {stroke:#000000;stroke-linecap:round;stroke-linejoin:round;stroke-width:1}
		.st7 {fill:none;stroke:none;stroke-linecap:round;stroke-linejoin:round;stroke-width:0.75}
		.st8 {fill:#000000;font-family:Calibri;font-size:1.00001em}
		.st9 {marker-end:url(#mrkr4-85);stroke:#000000;stroke-linecap:round;stroke-linejoin:round;stroke-width:0.75}
		.st10 {fill:#000000;fill-opacity:1;stroke:#000000;stroke-opacity:1;stroke-width:0.34246575342466}
		.st11 {font-size:1em}
		.st12 {fill:none;fill-rule:evenodd;font-size:12px;overflow:visible;stroke-linecap:square;stroke-miterlimit:3}
	]]>
	</style>

	<defs id="Markers">
		<g id="lend4">
			<path d="M 2 1 L 0 0 L 2 -1 L 2 1 " style="stroke:none"/>
		</g>
		<marker id="mrkr4-85" class="st10" v:arrowType="4" v:arrowSize="0" v:setback="5.84" refX="-5.84" orient="auto"
				markerUnits="strokeWidth" overflow="visible">
			<use xlink:href="#lend4" transform="scale(-2.92,-2.92) "/>
		</marker>
	</defs>
	<g v:mID="0" v:index="1" v:groupContext="foregroundPage">
		<title>Page-1</title>
		<v:pageProperties v:drawingScale="1" v:pageScale="1" v:drawingUnits="19" v:shadowOffsetX="9" v:shadowOffsetY="-9"/>
		<g id="shape241-1" v:mID="241" v:groupContext="shape" transform="translate(497.625,-28.3637)">
			<title>Rectangle.241</title>
			<v:userDefs>
				<v:ud v:nameU="visVersion" v:val="VT0(15):26"/>
			</v:userDefs>
			<rect x="0" y="52.466" width="18" height="54" class="st1"/>
		</g>
		<g id="shape232-3" v:mID="232" v:groupContext="shape" transform="translate(532.5,-28.3637)">
			<title>Rectangle.232</title>
			<v:userDefs>
				<v:ud v:nameU="visVersion" v:val="VT0(15):26"/>
			</v:userDefs>
			<rect x="0" y="52.466" width="18" height="54" class="st2"/>
		</g>
		<g id="shape231-5" v:mID="231" v:groupContext="shape" transform="translate(56.625,-28.3637)">
			<title>Rectangle.231</title>
			<v:userDefs>
				<v:ud v:nameU="visVersion" v:val="VT0(15):26"/>
			</v:userDefs>
			<rect x="0" y="52.466" width="18" height="54" class="st3"/>
		</g>
		<g id="shape230-7" v:mID="230" v:groupContext="shape" transform="translate(292.922,-28.3637)">
			<title>Rectangle.230</title>
			<v:userDefs>
				<v:ud v:nameU="visVersion" v:val="VT0(15):26"/>
			</v:userDefs>
			<rect x="0" y="52.466" width="18" height="54" class="st4"/>
		</g>
		<g id="shape229-9" v:mID="229" v:groupContext="shape" transform="translate(220.828,-28.3637)">
			<title>Rectangle</title>
			<v:userDefs>
				<v:ud v:nameU="visVersion" v:val="VT0(15):26"/>
			</v:userDefs>
			<rect x="0" y="52.466" width="18" height="54" class="st5"/>
		</g>
		<g id="shape48-11" v:mID="48" v:groupContext="shape" transform="translate(396.375,-64.3637)">
			<title>Sheet.48</title>
			<path d="M0 92.97 L3 106.47 L48 106.47 L51 92.97 L96 92.97" class="st6"/>
		</g>
		<g id="shape52-14" v:mID="52" v:groupContext="shape" transform="translate(492.375,-64.3637)">
			<title>Sheet.52</title>
			<path d="M0 92.97 L3 106.47 L48 106.47 L50.25 92.97 L66 92.97" class="st6"/>
		</g>
		<g id="shape53-17" v:mID="53" v:groupContext="shape" transform="translate(300.375,-64.3637)">
			<title>Sheet.53</title>
			<path d="M0 92.97 L3 106.47 L48 106.47 L51 92.97 L96 92.97" class="st6"/>
		</g>
		<g id="shape54-20" v:mID="54" v:groupContext="shape" transform="translate(204.375,-64.3637)">
			<title>Sheet.54</title>
			<path d="M0 92.97 L3 106.47 L48 106.47 L51 92.97 L96 92.97" class="st6"/>
		</g>
		<g id="shape55-23" v:mID="55" v:groupContext="shape" transform="translate(396.375,135.068) scale(1,-1)">
			<title>Sheet.55</title>
			<path d="M0 92.97 L3 106.47 L48 106.47 L51 92.97 L99 92.97" class="st6"/>
		</g>
		<g id="shape57-26" v:mID="57" v:groupContext="shape" transform="translate(300.375,135.068) scale(1,-1)">
			<title>Sheet.57</title>
			<path d="M0 92.97 L3 106.47 L48 106.47 L51 92.97 L96 92.97" class="st6"/>
		</g>
		<g id="shape58-29" v:mID="58" v:groupContext="shape" transform="translate(204.375,135.068) scale(1,-1)">
			<title>Sheet.58</title>
			<path d="M0 92.97 L3 106.47 L48 106.47 L51 92.97 L96 92.97" class="st6"/>
		</g>
		<g id="shape59-32" v:mID="59" v:groupContext="shape" transform="translate(63.375,-64.3637)">
			<title>Sheet.59</title>
			<path d="M0 92.97 L3.38 106.47 L93 106.47 L96 92.97 L141 92.97" class="st6"/>
		</g>
		<g id="shape60-35" v:mID="60" v:groupContext="shape" transform="translate(111.375,135.068) scale(1,-1)">
			<title>Sheet.60</title>
			<path d="M0 106.47 L45 106.47 L48 92.97 L93 92.97" class="st6"/>
		</g>
		<g id="shape61-38" v:mID="61" v:groupContext="shape" transform="translate(36.375,-77.8637)">
			<title>Sheet.61</title>
			<path d="M27 106.47 L0 106.47" class="st6"/>
		</g>
		<g id="shape63-41" v:mID="63" v:groupContext="shape" transform="translate(36.375,-32.8637)">
			<title>Sheet.63</title>
			<path d="M0 92.97 L60 92.97 L63 106.47 L84 106.47 L87 92.97 L108 92.97" class="st6"/>
		</g>
		<g id="shape64-44" v:mID="64" v:groupContext="shape" transform="translate(144.375,-32.8637)">
			<title>Sheet.64</title>
			<path d="M0 92.97 L3 106.47 L24 106.47 L27 92.97 L48 92.97" class="st6"/>
		</g>
		<g id="shape65-47" v:mID="65" v:groupContext="shape" transform="translate(432.375,-32.8637)">
			<title>Sheet.65</title>
			<path d="M0 92.97 L3 106.47 L24 106.47 L27 92.97 L48 92.97 L51 106.47 L72 106.47 L75 92.97 L126 92.97" class="st6"/>
		</g>
		<g id="shape66-50" v:mID="66" v:groupContext="shape" transform="translate(192.375,-32.8637)">
			<title>Sheet.66</title>
			<path d="M0 92.97 L3 106.47 L24 106.47 L27 92.97 L48 92.97" class="st6"/>
		</g>
		<g id="shape67-53" v:mID="67" v:groupContext="shape" transform="translate(240.375,-32.8637)">
			<title>Sheet.67</title>
			<path d="M0 92.97 L3 106.47 L24 106.47 L27 92.97 L48 92.97" class="st6"/>
		</g>
		<g id="shape68-56" v:mID="68" v:groupContext="shape" transform="translate(288.375,-32.8637)">
			<title>Sheet.68</title>
			<path d="M0 92.97 L3 106.47 L24 106.47 L27 92.97 L48 92.97" class="st6"/>
		</g>
		<g id="shape69-59" v:mID="69" v:groupContext="shape" transform="translate(336.375,-32.8637)">
			<title>Sheet.69</title>
			<path d="M0 92.97 L3 106.47 L24 106.47 L27 92.97 L48 92.97" class="st6"/>
		</g>
		<g id="shape70-62" v:mID="70" v:groupContext="shape" transform="translate(384.375,-32.8637)">
			<title>Sheet.70</title>
			<path d="M0 92.97 L3 106.47 L24 106.47 L27 92.97 L48 92.97" class="st6"/>
		</g>
		<g id="shape71-65" v:mID="71" v:groupContext="shape" transform="translate(31.875,-28.3637) scale(-1,1)">
			<title>Sheet.71</title>
			<desc>SCL</desc>
			<v:textBlock v:margins="rect(0,0,0,0)"/>
			<v:textRect cx="15.75" cy="97.466" width="31.5" height="18"/>
			<rect x="0" y="88.466" width="31.5" height="18" class="st7"/>
			<text x="-16.96" y="100.47" transform="scale(-1,1)" class="st8" v:langID="1033"><v:paragraph v:spLine="-1"
						v:horizAlign="2"/><v:tabList/>SCL</text>		</g>
		<g id="shape226-68" v:mID="226" v:groupContext="shape" transform="translate(215.884,48.9234) rotate(101.004)">
			<title>Sheet.226</title>
			<path d="M0 106.47 L13.75 106.47" class="st6"/>
		</g>
		<g id="shape228-71" v:mID="228" v:groupContext="shape" transform="translate(31.875,-59.8637) scale(-1,1)">
			<title>Sheet.228</title>
			<desc>SDA</desc>
			<v:textBlock v:margins="rect(0,0,0,0)"/>
			<v:textRect cx="15.75" cy="97.466" width="31.5" height="18"/>
			<rect x="0" y="88.466" width="31.5" height="18" class="st7"/>
			<text x="-19.84" y="100.47" transform="scale(-1,1)" class="st8" v:langID="1033"><v:paragraph v:spLine="-1"
						v:horizAlign="2"/><v:tabList/>SDA</text>		</g>
		<g id="shape233-74" v:mID="233" v:groupContext="shape" transform="translate(187.125,-91.3637) scale(-1,1)">
			<title>Sheet.233</title>
			<desc>“Start Bit”</desc>
			<v:textBlock v:margins="rect(0,0,0,0)"/>
			<v:textRect cx="56.25" cy="99.1023" width="112.5" height="14.7273"/>
			<rect x="0" y="91.7387" width="112.5" height="14.7273" class="st7"/>
			<text x="-112.5" y="102.1" transform="scale(-1,1)" class="st8" v:langID="1033"><v:paragraph v:spLine="-1"/><v:tabList/>“Start Bit”</text>		</g>
		<g id="shape234-77" v:mID="234" v:groupContext="shape" transform="translate(530.25,-91.3637) scale(-1,1)">
			<title>Sheet.234</title>
			<desc>“Stop Bit”</desc>
			<v:textBlock v:margins="rect(0,0,0,0)"/>
			<v:textRect cx="56.25" cy="99.1023" width="112.5" height="14.7273"/>
			<rect x="0" y="91.7387" width="112.5" height="14.7273" class="st7"/>
			<text x="-48.22" y="102.1" transform="scale(-1,1)" class="st8" v:langID="1033"><v:paragraph v:spLine="-1"
						v:horizAlign="2"/><v:tabList/>“Stop Bit”</text>		</g>
		<g id="shape235-80" v:mID="235" v:groupContext="shape" transform="translate(72.375,-85.7387)">
			<title>Sheet.235</title>
			<path d="M4.5 96.34 L1.78 102.46" class="st9"/>
		</g>
		<g id="shape236-86" v:mID="236" v:groupContext="shape" transform="translate(534.125,-86.3012) scale(-1,1)">
			<title>Sheet.236</title>
			<path d="M4.5 96.34 L1.78 102.46" class="st9"/>
		</g>
		<g id="shape237-91" v:mID="237" v:groupContext="shape" transform="translate(214.688,-4.63641) scale(-1,1)">
			<title>Sheet.237</title>
			<desc>Data read during time SCL is high</desc>
			<v:textBlock v:margins="rect(0,0,0,0)"/>
			<v:textRect cx="56.25" cy="99.1023" width="112.5" height="14.7273"/>
			<rect x="0" y="91.7387" width="112.5" height="14.7273" class="st7"/>
			<text x="-107.07" y="96.1" transform="scale(-1,1)" class="st8" v:langID="1033"><v:paragraph v:spLine="-1"
						v:horizAlign="2"/><v:tabList/>Data read during time <tspan x="-50.84" dy="1em" class="st11">SCL is high</tspan></text>		</g>
		<g id="shape238-95" v:mID="238" v:groupContext="shape" transform="translate(430.688,-4.63641) scale(-1,1)">
			<title>Sheet.238</title>
			<desc>Data is changed during time SCL is low</desc>
			<v:textBlock v:margins="rect(0,0,0,0)"/>
			<v:textRect cx="56.25" cy="99.1023" width="112.5" height="14.7273"/>
			<rect x="0" y="91.7387" width="112.5" height="14.7273" class="st7"/>
			<text x="-112.5" y="96.1" transform="scale(-1,1)" class="st8" v:langID="1033"><v:paragraph v:spLine="-1"/><v:tabList/>Data is changed during <tspan
						x="-112.5" dy="1em" class="st11">time SCL is low</tspan></text>		</g>
		<g id="shape239-99" v:mID="239" v:groupContext="shape" transform="translate(221.438,187.943) rotate(180)">
			<title>Sheet.239</title>
			<path d="M4.5 96.34 L1.78 102.46" class="st9"/>
		</g>
		<g id="shape240-104" v:mID="240" v:groupContext="shape" transform="translate(310.313,187.943) scale(1,-1)">
			<title>Sheet.240</title>
			<path d="M4.5 96.34 L1.78 102.46" class="st9"/>
		</g>
		<g id="shape242-109" v:mID="242" v:groupContext="shape" transform="translate(502.125,-4.63641) scale(-1,1)">
			<title>Sheet.242</title>
			<desc>ACK</desc>
			<v:textBlock v:margins="rect(0,0,0,0)"/>
			<v:textRect cx="14.625" cy="99.1023" width="29.25" height="14.7273"/>
			<rect x="0" y="91.7387" width="29.25" height="14.7273" class="st7"/>
			<text x="-19.58" y="102.1" transform="scale(-1,1)" class="st8" v:langID="1033"><v:paragraph v:spLine="-1"
						v:horizAlign="2"/><v:tabList/>ACK</text>		</g>
		<g id="shape243-112" v:mID="243" v:groupContext="shape" transform="translate(502.125,184.568) rotate(180)">
			<title>Sheet.243</title>
			<path d="M4.5 96.34 L1.78 102.46" class="st9"/>
		</g>
	</g>
</svg>
